<svg width="14" height="16" viewBox="0 0 14 16" fill="none" xmlns="http://www.w3.org/2000/svg">
<path d="M6.20084 15.7803C5.93305 15.4874 5.93305 15.0125 6.20084 14.7196L12.3445 7.99997L6.20084 1.28027C5.93305 0.987371 5.93305 0.512571 6.20084 0.219671C6.46863 -0.0732288 6.9028 -0.0732288 7.17059 0.219671L13.7992 7.46967C14.0669 7.76257 14.0669 8.23737 13.7992 8.53027L7.17059 15.7803C6.9028 16.0732 6.46863 16.0732 6.20084 15.7803Z" fill="#4DBCE9"/>
<path d="M0.15063 13.8352C-0.05021 13.6156 -0.05021 13.2594 0.15063 13.0398L4.7584 7.99999L0.15063 2.96021C-0.05021 2.74053 -0.05021 2.38443 0.15063 2.16476C0.35147 1.94508 0.677103 1.94508 0.877943 2.16476L5.84937 7.60227C6.05022 7.82194 6.05022 8.17804 5.84937 8.39772L0.877943 13.8352C0.677103 14.0549 0.35147 14.0549 0.15063 13.8352Z" fill="#4DBCE9"/>
</svg>
