<svg width="262" height="22" viewBox="0 0 262 22" fill="none" xmlns="http://www.w3.org/2000/svg">
<path d="M13.5517 0.103516C13.486 0.726716 13.4367 1.33352 13.4039 1.92392C13.3875 2.49792 13.3792 2.94072 13.3792 3.25232C13.3792 3.56392 13.3875 3.85912 13.4039 4.13792C13.4203 4.41672 13.4367 4.64632 13.4532 4.82672H12.8865C12.7715 3.77712 12.5908 2.94892 12.3444 2.34212C12.1144 1.73532 11.7612 1.30892 11.2849 1.06292C10.8249 0.800516 10.1761 0.669315 9.33837 0.669315H7.63824C7.1126 0.669315 6.71015 0.718516 6.43091 0.816916C6.16808 0.898916 5.98739 1.07932 5.88884 1.35812C5.79028 1.62052 5.741 2.03872 5.741 2.61272V15.0111C5.741 15.5687 5.79028 15.9869 5.88884 16.2657C5.98739 16.5445 6.16808 16.7331 6.43091 16.8315C6.71015 16.9135 7.1126 16.9545 7.63824 16.9545H9.23981C10.1761 16.9545 10.9153 16.8069 11.4574 16.5117C12.0159 16.2165 12.4347 15.7327 12.714 15.0603C13.0097 14.3879 13.2314 13.4695 13.3792 12.3051H13.946C13.8967 12.7807 13.872 13.4039 13.872 14.1747C13.872 14.5027 13.8802 14.9783 13.8967 15.6015C13.9295 16.2247 13.9788 16.8643 14.0445 17.5203C13.2068 17.4875 12.2623 17.4711 11.211 17.4711C10.1597 17.4547 9.22338 17.4465 8.40206 17.4465C8.02426 17.4465 7.53968 17.4465 6.94834 17.4465C6.35699 17.4465 5.71636 17.4547 5.02645 17.4711C4.35297 17.4711 3.66307 17.4793 2.95674 17.4957C2.26683 17.4957 1.60156 17.5039 0.960938 17.5203V17.0283C1.51943 16.9955 1.9383 16.9299 2.21755 16.8315C2.4968 16.7331 2.67749 16.5363 2.75962 16.2411C2.85818 15.9459 2.90746 15.5031 2.90746 14.9127V2.71112C2.90746 2.10432 2.85818 1.66152 2.75962 1.38272C2.67749 1.08752 2.48859 0.890716 2.19291 0.792316C1.91366 0.677516 1.50301 0.611915 0.960938 0.595515V0.103516C1.60156 0.119916 2.26683 0.136315 2.95674 0.152715C3.66307 0.152715 4.35297 0.160916 5.02645 0.177316C5.71636 0.177316 6.35699 0.177316 6.94834 0.177316C7.53968 0.177316 8.02426 0.177316 8.40206 0.177316C9.15768 0.177316 10.0118 0.177316 10.9646 0.177316C11.9337 0.160916 12.7961 0.136316 13.5517 0.103516ZM9.46156 8.51672C9.46156 8.51672 9.46156 8.59871 9.46156 8.76272C9.46156 8.92671 9.46156 9.00872 9.46156 9.00872H5.00181C5.00181 9.00872 5.00181 8.92671 5.00181 8.76272C5.00181 8.59871 5.00181 8.51672 5.00181 8.51672H9.46156ZM10.1761 5.26952C10.1104 6.20431 10.0776 6.91772 10.0776 7.40972C10.094 7.90172 10.1022 8.35272 10.1022 8.76272C10.1022 9.17272 10.1104 9.62371 10.1268 10.1157C10.1433 10.6077 10.1843 11.3211 10.25 12.2559H9.68332C9.60119 11.7147 9.49442 11.1981 9.36301 10.7061C9.2316 10.1977 8.99341 9.78772 8.64846 9.47612C8.31993 9.16452 7.8025 9.00872 7.09617 9.00872V8.51672C7.62181 8.51672 8.03247 8.41011 8.32815 8.19691C8.64025 7.98371 8.87843 7.70492 9.04269 7.36052C9.20696 7.01612 9.32194 6.66352 9.38765 6.30272C9.46978 5.92552 9.5437 5.58111 9.6094 5.26952H10.1761ZM29.1595 4.85131V5.36792C28.5353 5.36792 28.0918 5.49091 27.829 5.73691C27.5662 5.98291 27.4348 6.45032 27.4348 7.13912V15.2325C27.4348 15.9213 27.5662 16.3887 27.829 16.6347C28.1082 16.8807 28.675 17.0037 29.5291 17.0037C29.4634 17.5777 29.4141 18.1271 29.3813 18.6519C29.3649 19.1767 29.3566 19.5785 29.3566 19.8573C29.3566 20.1525 29.3649 20.4313 29.3813 20.6937C29.3977 20.9725 29.4141 21.2021 29.4306 21.3825H28.8639C28.7489 20.4149 28.601 19.6359 28.4203 19.0455C28.2397 18.4715 27.9604 18.0615 27.5826 17.8155C27.2212 17.5695 26.6956 17.4465 26.0057 17.4465C25.6114 17.4465 25.2418 17.4547 24.8969 17.4711C24.5684 17.4711 24.207 17.4793 23.8128 17.4957C23.4185 17.4957 22.9668 17.5039 22.4576 17.5203C21.9484 17.5203 21.3324 17.5203 20.6096 17.5203C19.9197 17.5203 19.3859 17.6351 19.0081 17.8647C18.6302 18.1107 18.351 18.5125 18.1703 19.0701C17.9896 19.6441 17.85 20.4149 17.7514 21.3825H17.1847C17.2176 21.2021 17.234 20.9725 17.234 20.6937C17.2504 20.4313 17.2586 20.1525 17.2586 19.8573C17.2586 19.5785 17.2422 19.1767 17.2094 18.6519C17.1929 18.1271 17.1519 17.5777 17.0862 17.0037H23.1475C23.7388 17.0037 24.1577 16.8807 24.4041 16.6347C24.6505 16.3887 24.7737 15.9213 24.7737 15.2325V7.13912C24.7737 6.45032 24.6587 5.98291 24.4287 5.73691C24.1988 5.49091 23.8045 5.36792 23.246 5.36792H23.0243C22.4494 5.36792 22.0634 5.49912 21.8662 5.76152C21.6855 6.00752 21.5623 6.46672 21.4966 7.13912C21.4309 8.05752 21.3406 9.00871 21.2256 9.99271C21.1271 10.9603 20.9874 11.9033 20.8067 12.8217C20.6425 13.7237 20.4043 14.5437 20.0922 15.2817C19.8787 15.7901 19.5994 16.2411 19.2544 16.6347C18.9259 17.0119 18.4906 17.2415 17.9486 17.3235L17.5543 17.0037C18.08 17.0037 18.5153 16.8151 18.8602 16.4379C19.2216 16.0607 19.4926 15.6343 19.6733 15.1587C19.9526 14.4371 20.1743 13.6417 20.3386 12.7725C20.5193 11.9033 20.6671 10.9931 20.7821 10.0419C20.8971 9.07432 20.9874 8.10672 21.0531 7.13912C21.1024 6.45032 20.9546 5.98291 20.6096 5.73691C20.2811 5.49091 19.7801 5.36792 19.1066 5.36792V4.85131C19.238 4.86771 19.4434 4.89231 19.7226 4.92512C20.0183 4.94151 20.3632 4.94972 20.7575 4.94972C21.1517 4.94972 21.5541 4.93332 21.9648 4.90052C22.3755 4.86772 22.8272 4.85131 23.32 4.85131C23.8456 4.85131 24.3138 4.86772 24.7244 4.90052C25.1351 4.93332 25.6114 4.94972 26.1535 4.94972C26.712 4.94972 27.2787 4.94151 27.8536 4.92512C28.4286 4.89231 28.8639 4.86771 29.1595 4.85131ZM46.9795 4.85131V5.36792C46.3388 5.36792 45.8789 5.49091 45.5997 5.73691C45.3368 5.98291 45.2054 6.45032 45.2054 7.13912V15.2325C45.2054 15.9213 45.3368 16.3887 45.5997 16.6347C45.8789 16.8807 46.3388 17.0037 46.9795 17.0037V17.5203C46.7002 17.5039 46.2649 17.4875 45.6736 17.4711C45.0822 17.4383 44.4991 17.4219 43.9242 17.4219C43.3657 17.4219 42.8072 17.4383 42.2487 17.4711C41.7066 17.4875 41.296 17.5039 41.0167 17.5203V17.0037C41.5752 17.0037 41.9694 16.8807 42.1994 16.6347C42.4294 16.3887 42.5444 15.9213 42.5444 15.2325V7.13912C42.5444 6.45032 42.4294 5.98291 42.1994 5.73691C41.9694 5.49091 41.5752 5.36792 41.0167 5.36792V4.85131C41.296 4.86771 41.6984 4.89231 42.224 4.92512C42.7661 4.94151 43.3164 4.94972 43.8749 4.94972C44.4498 4.94972 45.033 4.94151 45.6243 4.92512C46.2321 4.89231 46.6838 4.86771 46.9795 4.85131ZM38.6267 4.85131V5.36792C38.0846 5.36792 37.6904 5.49091 37.444 5.73691C37.214 5.98291 37.099 6.45032 37.099 7.13912V15.2325C37.099 15.9213 37.214 16.3887 37.444 16.6347C37.6904 16.8807 38.0846 17.0037 38.6267 17.0037V17.5203C38.3639 17.5039 37.9614 17.4875 37.4193 17.4711C36.8937 17.4383 36.3434 17.4219 35.7685 17.4219C35.21 17.4219 34.6269 17.4383 34.0191 17.4711C33.4113 17.4875 32.9596 17.5039 32.6639 17.5203V17.0037C33.3045 17.0037 33.7563 16.8807 34.0191 16.6347C34.2983 16.3887 34.438 15.9213 34.438 15.2325V7.13912C34.438 6.45032 34.2983 5.98291 34.0191 5.73691C33.7563 5.49091 33.3045 5.36792 32.6639 5.36792V4.85131C32.9596 4.86771 33.4031 4.89231 33.9945 4.92512C34.5858 4.94151 35.1607 4.94972 35.7192 4.94972C36.2941 4.94972 36.8526 4.94151 37.3947 4.92512C37.9532 4.89231 38.3639 4.86771 38.6267 4.85131ZM42.8154 6.49952L43.2096 6.77011L36.7541 16.3149L36.3352 16.0197L42.8154 6.49952ZM64.2207 4.85131V5.36792C63.5801 5.36792 63.1201 5.49091 62.8409 5.73691C62.5781 5.98291 62.4467 6.45032 62.4467 7.13912V15.2325C62.4467 15.9213 62.5781 16.3887 62.8409 16.6347C63.1201 16.8807 63.5801 17.0037 64.2207 17.0037V17.5203C63.9415 17.5039 63.5062 17.4875 62.9148 17.4711C62.3235 17.4383 61.7403 17.4219 61.1654 17.4219C60.6069 17.4219 60.0484 17.4383 59.4899 17.4711C58.9479 17.4875 58.5372 17.5039 58.258 17.5203V17.0037C58.8165 17.0037 59.2107 16.8807 59.4406 16.6347C59.6706 16.3887 59.7856 15.9213 59.7856 15.2325V7.13912C59.7856 6.45032 59.6706 5.98291 59.4406 5.73691C59.2107 5.49091 58.8165 5.36792 58.258 5.36792V4.85131C58.5372 4.86771 58.9396 4.89231 59.4653 4.92512C60.0074 4.94151 60.5576 4.94972 61.1161 4.94972C61.6911 4.94972 62.2742 4.94151 62.8655 4.92512C63.4733 4.89231 63.925 4.86771 64.2207 4.85131ZM56.2622 4.85131V5.36792C55.7201 5.36792 55.3259 5.49091 55.0795 5.73691C54.8495 5.98291 54.7345 6.45032 54.7345 7.13912V15.2325C54.7345 15.9213 54.8495 16.3887 55.0795 16.6347C55.3259 16.8807 55.7201 17.0037 56.2622 17.0037V17.5203C55.9993 17.5039 55.5969 17.4875 55.0548 17.4711C54.5292 17.4383 53.9789 17.4219 53.404 17.4219C52.8455 17.4219 52.2623 17.4383 51.6546 17.4711C51.0468 17.4875 50.5951 17.5039 50.2994 17.5203V17.0037C50.94 17.0037 51.3917 16.8807 51.6546 16.6347C51.9338 16.3887 52.0734 15.9213 52.0734 15.2325V7.13912C52.0734 6.45032 51.9338 5.98291 51.6546 5.73691C51.3917 5.49091 50.94 5.36792 50.2994 5.36792V4.85131C50.5951 4.86771 51.0386 4.89231 51.6299 4.92512C52.2213 4.94151 52.7962 4.94972 53.3547 4.94972C53.9296 4.94972 54.4881 4.94151 55.0302 4.92512C55.5887 4.89231 55.9993 4.86771 56.2622 4.85131ZM60.6726 10.7553V11.2473H53.7243V10.7553H60.6726ZM73.7098 4.48232C74.8104 4.48232 75.7877 4.71192 76.6419 5.17112C77.4961 5.63032 78.1777 6.35192 78.687 7.33592C79.1962 8.31992 79.4508 9.60732 79.4508 11.1981C79.4508 12.7889 79.1962 14.0763 78.687 15.0603C78.1777 16.0279 77.4961 16.7413 76.6419 17.2005C75.7877 17.6433 74.8104 17.8647 73.7098 17.8647C72.6257 17.8647 71.6483 17.6433 70.7777 17.2005C69.9071 16.7413 69.2172 16.0279 68.708 15.0603C68.2152 14.0763 67.9688 12.7889 67.9688 11.1981C67.9688 9.60732 68.2152 8.31992 68.708 7.33592C69.2172 6.35192 69.9071 5.63032 70.7777 5.17112C71.6483 4.71192 72.6257 4.48232 73.7098 4.48232ZM73.7098 4.97432C72.8556 4.97432 72.1575 5.46632 71.6154 6.45032C71.0734 7.41792 70.8023 9.00052 70.8023 11.1981C70.8023 13.3957 71.0734 14.9783 71.6154 15.9459C72.1575 16.8971 72.8556 17.3727 73.7098 17.3727C74.5475 17.3727 75.2374 16.8971 75.7795 15.9459C76.338 14.9783 76.6172 13.3957 76.6172 11.1981C76.6172 9.00052 76.338 7.41792 75.7795 6.45032C75.2374 5.46632 74.5475 4.97432 73.7098 4.97432ZM99.574 4.82672V5.34332C99.0647 5.34332 98.6787 5.40072 98.4159 5.51552C98.1531 5.61392 97.9724 5.81072 97.8738 6.10592C97.7917 6.38472 97.7506 6.81111 97.7506 7.38511V14.9865C97.7506 15.5441 97.7917 15.9705 97.8738 16.2657C97.9724 16.5445 98.1531 16.7331 98.4159 16.8315C98.6787 16.9299 99.0647 16.9955 99.574 17.0283V17.5203C99.2126 17.4875 98.7526 17.4711 98.1941 17.4711C97.6356 17.4547 97.0607 17.4465 96.4694 17.4465C95.8288 17.4465 95.2128 17.4547 94.6214 17.4711C94.0301 17.4711 93.5619 17.4875 93.217 17.5203V17.0283C93.7262 16.9955 94.1122 16.9299 94.375 16.8315C94.6543 16.7331 94.8432 16.5445 94.9417 16.2657C95.0403 15.9705 95.0896 15.5441 95.0896 14.9865V6.25352L90.4573 17.6433H90.0631L85.5787 6.40112V14.6175C85.5787 15.2243 85.628 15.6999 85.7266 16.0443C85.8415 16.3887 86.0469 16.6347 86.3425 16.7823C86.6382 16.9135 87.0817 16.9955 87.6731 17.0283V17.5203C87.361 17.4875 86.9996 17.4711 86.5889 17.4711C86.1947 17.4547 85.7758 17.4465 85.3323 17.4465C84.9381 17.4465 84.5356 17.4547 84.125 17.4711C83.7308 17.4711 83.4022 17.4875 83.1394 17.5203V17.0283C83.665 16.9955 84.0675 16.9053 84.3467 16.7577C84.626 16.6101 84.8067 16.3641 84.8888 16.0197C84.9874 15.6589 85.0367 15.1751 85.0367 14.5683V7.43432C85.0367 6.82752 84.9874 6.38472 84.8888 6.10592C84.8067 5.81072 84.626 5.61392 84.3467 5.51552C84.0675 5.40072 83.665 5.33512 83.1394 5.31872V4.82672C83.4022 4.84312 83.7308 4.85952 84.125 4.87592C84.5356 4.89232 84.9381 4.90052 85.3323 4.90052C86.2358 4.90052 87.0242 4.87592 87.6977 4.82672L91.4676 14.6421L90.9748 15.1341L95.0896 4.90052C95.3031 4.90052 95.5331 4.90871 95.7795 4.92512C96.0259 4.92512 96.2723 4.92512 96.5187 4.92512C97.11 4.92512 97.6685 4.91692 98.1941 4.90052C98.7362 4.86772 99.1961 4.84312 99.574 4.82672ZM109.053 4.85131V5.36792C108.412 5.36792 107.952 5.49091 107.673 5.73691C107.41 5.98291 107.279 6.45032 107.279 7.13912V15.4047C107.279 16.0115 107.353 16.4297 107.5 16.6593C107.648 16.8889 107.919 17.0037 108.314 17.0037C109.151 17.0037 109.792 16.8561 110.235 16.5609C110.679 16.2657 110.983 15.8721 111.147 15.3801C111.311 14.8881 111.394 14.3715 111.394 13.8303C111.394 12.6823 111.09 11.8541 110.482 11.3457C109.891 10.8373 108.897 10.5831 107.5 10.5831C107.221 10.5831 106.934 10.5831 106.638 10.5831C106.342 10.5831 106.063 10.5831 105.8 10.5831L105.751 10.1403C106.326 10.1403 106.876 10.1403 107.402 10.1403C107.944 10.1403 108.47 10.1403 108.979 10.1403C110.835 10.1403 112.157 10.4765 112.946 11.1489C113.751 11.8049 114.153 12.6413 114.153 13.6581C114.153 14.2649 113.972 14.8635 113.611 15.4539C113.266 16.0443 112.683 16.5363 111.862 16.9299C111.057 17.3235 109.973 17.5203 108.609 17.5203C108.231 17.5203 107.804 17.5039 107.328 17.4711C106.868 17.4383 106.392 17.4219 105.899 17.4219C105.373 17.4219 104.815 17.4383 104.223 17.4711C103.632 17.4875 103.189 17.5039 102.893 17.5203V17.0037C103.517 17.0037 103.961 16.8807 104.223 16.6347C104.486 16.3887 104.618 15.9213 104.618 15.2325V7.13912C104.618 6.45032 104.503 5.98291 104.273 5.73691C104.043 5.49091 103.648 5.36792 103.09 5.36792V4.85131C103.369 4.86771 103.772 4.89231 104.297 4.92512C104.839 4.94151 105.39 4.94972 105.948 4.94972C106.523 4.94972 107.106 4.94151 107.698 4.92512C108.305 4.89231 108.757 4.86771 109.053 4.85131ZM120.683 4.85131V5.36792C120.108 5.36792 119.697 5.49091 119.451 5.73691C119.221 5.98291 119.106 6.45032 119.106 7.13912V15.2325C119.106 15.9213 119.237 16.3887 119.5 16.6347C119.779 16.8807 120.239 17.0037 120.88 17.0037V17.5203C120.584 17.5039 120.124 17.4875 119.5 17.4711C118.892 17.4383 118.301 17.4219 117.726 17.4219C117.2 17.4219 116.658 17.4383 116.1 17.4711C115.541 17.4875 115.131 17.5039 114.868 17.5203V17.0037C115.443 17.0037 115.845 16.8807 116.075 16.6347C116.321 16.3887 116.445 15.9213 116.445 15.2325V7.13912C116.445 6.45032 116.321 5.98291 116.075 5.73691C115.845 5.49091 115.443 5.36792 114.868 5.36792V4.85131C115.147 4.86771 115.566 4.89231 116.124 4.92512C116.699 4.94151 117.25 4.94972 117.775 4.94972C118.334 4.94972 118.884 4.94151 119.426 4.92512C119.984 4.89231 120.403 4.86771 120.683 4.85131ZM144.244 4.85131V5.36792C143.603 5.36792 143.143 5.49091 142.864 5.73691C142.601 5.98291 142.47 6.45032 142.47 7.13912V15.2325C142.47 15.9213 142.601 16.3887 142.864 16.6347C143.143 16.8807 143.603 17.0037 144.244 17.0037V17.5203C144.063 17.5039 143.8 17.4957 143.455 17.4957C143.11 17.4793 142.741 17.4629 142.346 17.4465C141.952 17.4301 141.574 17.4219 141.213 17.4219C140.589 17.4219 139.997 17.4383 139.439 17.4711C138.881 17.5039 138.289 17.5203 137.665 17.5203C137.057 17.5203 136.458 17.5039 135.866 17.4711C135.291 17.4383 134.733 17.4219 134.191 17.4219C133.665 17.4219 133.115 17.4383 132.54 17.4711C131.981 17.5039 131.398 17.5203 130.791 17.5203C130.396 17.5203 130.01 17.5121 129.633 17.4957C129.255 17.4793 128.869 17.4629 128.474 17.4465C128.08 17.4301 127.661 17.4219 127.218 17.4219C126.856 17.4219 126.47 17.4301 126.06 17.4465C125.666 17.4629 125.296 17.4793 124.951 17.4957C124.622 17.4957 124.351 17.5039 124.138 17.5203V17.0037C124.779 17.0037 125.23 16.8807 125.493 16.6347C125.772 16.3887 125.912 15.9213 125.912 15.2325V7.13912C125.912 6.45032 125.772 5.98291 125.493 5.73691C125.23 5.49091 124.779 5.36792 124.138 5.36792V4.85131C124.434 4.86771 124.877 4.89231 125.468 4.92512C126.076 4.94151 126.651 4.94972 127.193 4.94972C127.752 4.94972 128.277 4.94151 128.77 4.92512C129.279 4.89231 129.657 4.86771 129.904 4.85131V5.36792C129.427 5.36792 129.082 5.49091 128.869 5.73691C128.672 5.98291 128.573 6.45032 128.573 7.13912V15.2325C128.573 15.9213 128.696 16.3887 128.943 16.6347C129.189 16.8807 129.616 17.0037 130.224 17.0037H131.333C131.891 17.0037 132.285 16.8807 132.515 16.6347C132.745 16.3887 132.86 15.9213 132.86 15.2325V7.13912C132.86 6.45032 132.762 5.98291 132.565 5.73691C132.367 5.49091 132.023 5.36792 131.53 5.36792V4.85131C131.776 4.86771 132.154 4.89231 132.663 4.92512C133.172 4.94151 133.673 4.94972 134.166 4.94972C134.675 4.94972 135.185 4.94151 135.694 4.92512C136.219 4.89231 136.605 4.86771 136.852 4.85131V5.36792C136.359 5.36792 136.014 5.49091 135.817 5.73691C135.62 5.98291 135.521 6.45032 135.521 7.13912V15.2325C135.521 15.9213 135.636 16.3887 135.866 16.6347C136.096 16.8807 136.49 17.0037 137.049 17.0037H138.281C138.839 17.0037 139.234 16.8807 139.464 16.6347C139.694 16.3887 139.809 15.9213 139.809 15.2325V7.13912C139.809 6.45032 139.71 5.98291 139.513 5.73691C139.316 5.49091 138.971 5.36792 138.478 5.36792V4.85131C138.724 4.86771 139.094 4.89231 139.587 4.92512C140.096 4.94151 140.622 4.94972 141.164 4.94972C141.722 4.94972 142.297 4.94151 142.889 4.92512C143.496 4.89231 143.948 4.86771 144.244 4.85131ZM160.411 4.85131V5.36792C159.786 5.36792 159.343 5.49091 159.08 5.73691C158.817 5.98291 158.686 6.45032 158.686 7.13912V15.2325C158.686 15.9213 158.817 16.3887 159.08 16.6347C159.359 16.8807 159.803 17.0037 160.411 17.0037V17.5203C160.131 17.5039 159.712 17.4875 159.154 17.4711C158.612 17.4383 158.012 17.4219 157.355 17.4219C156.715 17.4219 156.058 17.4383 155.384 17.4711C154.727 17.4875 154.218 17.5039 153.856 17.5203V17.0037C154.563 17.0037 155.097 16.8889 155.458 16.6593C155.836 16.4133 156.025 15.9377 156.025 15.2325V7.13912C156.025 6.45032 155.91 5.98291 155.68 5.73691C155.45 5.49091 155.056 5.36792 154.497 5.36792H154.275C153.865 5.36792 153.594 5.49912 153.462 5.76152C153.347 6.00752 153.257 6.46672 153.191 7.13912C153.06 8.66432 152.895 10.1239 152.698 11.5179C152.518 12.9119 152.206 14.1665 151.762 15.2817C151.581 15.7081 151.36 16.1263 151.097 16.5363C150.85 16.9299 150.546 17.2497 150.185 17.4957C149.84 17.7417 149.43 17.8647 148.953 17.8647C148.641 17.8647 148.337 17.7991 148.041 17.6679C147.746 17.5531 147.499 17.3727 147.302 17.1267C147.105 16.8643 147.007 16.5363 147.007 16.1427C147.007 15.6507 147.146 15.2735 147.425 15.0111C147.721 14.7323 148.099 14.5929 148.559 14.5929C148.97 14.5929 149.306 14.7159 149.569 14.9619C149.832 15.2079 149.963 15.5441 149.963 15.9705C149.963 16.3149 149.865 16.6101 149.668 16.8561C149.471 17.1021 149.191 17.2989 148.83 17.4465C148.863 17.4629 148.904 17.4711 148.953 17.4711C149.019 17.4711 149.068 17.4711 149.101 17.4711C149.495 17.4711 149.832 17.3481 150.111 17.1021C150.407 16.8397 150.653 16.5281 150.85 16.1673C151.064 15.8065 151.228 15.4703 151.343 15.1587C151.622 14.4699 151.844 13.6909 152.008 12.8217C152.189 11.9525 152.337 11.0341 152.452 10.0665C152.567 9.09892 152.657 8.12312 152.723 7.13912C152.772 6.45032 152.624 5.98291 152.279 5.73691C151.951 5.49091 151.45 5.36792 150.776 5.36792V4.85131C150.908 4.86771 151.113 4.89231 151.392 4.92512C151.688 4.94151 152.033 4.94972 152.427 4.94972C152.756 4.94972 153.093 4.94972 153.438 4.94972C153.782 4.93332 154.16 4.92512 154.571 4.92512C154.932 4.92512 155.253 4.93332 155.532 4.94972C155.828 4.94972 156.123 4.94972 156.419 4.94972C156.731 4.94972 157.068 4.94972 157.429 4.94972C157.791 4.94972 158.16 4.94151 158.538 4.92512C158.932 4.90871 159.294 4.89232 159.622 4.87592C159.967 4.85952 160.23 4.85131 160.411 4.85131ZM169.875 4.48232C171.32 4.48232 172.453 4.91692 173.275 5.78612C174.096 6.65532 174.507 8.03292 174.507 9.91891H166.006L165.957 9.45152H171.895C171.911 8.64791 171.846 7.90991 171.698 7.23751C171.55 6.54871 171.32 5.99932 171.008 5.58932C170.696 5.17932 170.285 4.97432 169.776 4.97432C169.07 4.97432 168.454 5.35152 167.928 6.10592C167.419 6.84392 167.107 8.03292 166.992 9.67292L167.066 9.79592C167.049 10.0255 167.033 10.2797 167.016 10.5585C167 10.8209 166.992 11.0833 166.992 11.3457C166.992 12.4773 167.164 13.4285 167.509 14.1993C167.854 14.9701 168.306 15.5523 168.864 15.9459C169.423 16.3231 169.99 16.5117 170.564 16.5117C171.008 16.5117 171.435 16.4461 171.846 16.3149C172.273 16.1673 172.675 15.9295 173.053 15.6015C173.431 15.2571 173.768 14.7897 174.063 14.1993L174.556 14.3961C174.359 14.9537 174.055 15.5031 173.644 16.0443C173.234 16.5855 172.708 17.0283 172.067 17.3727C171.427 17.7007 170.679 17.8647 169.825 17.8647C168.675 17.8647 167.673 17.6105 166.819 17.1021C165.965 16.5773 165.308 15.8311 164.848 14.8635C164.388 13.8959 164.158 12.7479 164.158 11.4195C164.158 9.95992 164.396 8.71352 164.873 7.68032C165.349 6.64712 166.014 5.85992 166.869 5.31872C167.739 4.76112 168.741 4.48232 169.875 4.48232ZM192.097 4.85131V5.36792C191.456 5.36792 190.996 5.49091 190.717 5.73691C190.454 5.98291 190.323 6.45032 190.323 7.13912V15.2325C190.323 15.9213 190.454 16.3887 190.717 16.6347C190.996 16.8807 191.456 17.0037 192.097 17.0037V17.5203C191.818 17.5039 191.382 17.4875 190.791 17.4711C190.2 17.4383 189.617 17.4219 189.042 17.4219C188.483 17.4219 187.925 17.4383 187.366 17.4711C186.824 17.4875 186.413 17.5039 186.134 17.5203V17.0037C186.693 17.0037 187.087 16.8807 187.317 16.6347C187.547 16.3887 187.662 15.9213 187.662 15.2325V7.13912C187.662 6.45032 187.547 5.98291 187.317 5.73691C187.087 5.49091 186.693 5.36792 186.134 5.36792V4.85131C186.413 4.86771 186.816 4.89231 187.341 4.92512C187.884 4.94151 188.434 4.94972 188.992 4.94972C189.567 4.94972 190.15 4.94151 190.742 4.92512C191.35 4.89231 191.801 4.86771 192.097 4.85131ZM184.138 4.85131V5.36792C183.596 5.36792 183.202 5.49091 182.956 5.73691C182.726 5.98291 182.611 6.45032 182.611 7.13912V15.2325C182.611 15.9213 182.726 16.3887 182.956 16.6347C183.202 16.8807 183.596 17.0037 184.138 17.0037V17.5203C183.876 17.5039 183.473 17.4875 182.931 17.4711C182.405 17.4383 181.855 17.4219 181.28 17.4219C180.722 17.4219 180.139 17.4383 179.531 17.4711C178.923 17.4875 178.471 17.5039 178.176 17.5203V17.0037C178.816 17.0037 179.268 16.8807 179.531 16.6347C179.81 16.3887 179.95 15.9213 179.95 15.2325V7.13912C179.95 6.45032 179.81 5.98291 179.531 5.73691C179.268 5.49091 178.816 5.36792 178.176 5.36792V4.85131C178.471 4.86771 178.915 4.89231 179.506 4.92512C180.097 4.94151 180.672 4.94972 181.231 4.94972C181.806 4.94972 182.364 4.94151 182.906 4.92512C183.465 4.89231 183.876 4.86771 184.138 4.85131ZM188.549 10.7553V11.2473H181.6V10.7553H188.549ZM209.347 4.85131V5.36792C208.706 5.36792 208.246 5.49091 207.967 5.73691C207.704 5.98291 207.573 6.45032 207.573 7.13912V15.2325C207.573 15.9213 207.704 16.3887 207.967 16.6347C208.246 16.8807 208.706 17.0037 209.347 17.0037V17.5203C209.068 17.5039 208.632 17.4875 208.041 17.4711C207.45 17.4383 206.867 17.4219 206.292 17.4219C205.733 17.4219 205.175 17.4383 204.616 17.4711C204.074 17.4875 203.664 17.5039 203.384 17.5203V17.0037C203.943 17.0037 204.337 16.8807 204.567 16.6347C204.797 16.3887 204.912 15.9213 204.912 15.2325V7.13912C204.912 6.45032 204.797 5.98291 204.567 5.73691C204.337 5.49091 203.943 5.36792 203.384 5.36792V4.85131C203.664 4.86771 204.066 4.89231 204.592 4.92512C205.134 4.94151 205.684 4.94972 206.242 4.94972C206.817 4.94972 207.4 4.94151 207.992 4.92512C208.6 4.89231 209.051 4.86771 209.347 4.85131ZM201.388 4.85131V5.36792C200.846 5.36792 200.452 5.49091 200.206 5.73691C199.976 5.98291 199.861 6.45032 199.861 7.13912V15.2325C199.861 15.9213 199.976 16.3887 200.206 16.6347C200.452 16.8807 200.846 17.0037 201.388 17.0037V17.5203C201.126 17.5039 200.723 17.4875 200.181 17.4711C199.655 17.4383 199.105 17.4219 198.53 17.4219C197.972 17.4219 197.389 17.4383 196.781 17.4711C196.173 17.4875 195.721 17.5039 195.426 17.5203V17.0037C196.066 17.0037 196.518 16.8807 196.781 16.6347C197.06 16.3887 197.2 15.9213 197.2 15.2325V7.13912C197.2 6.45032 197.06 5.98291 196.781 5.73691C196.518 5.49091 196.066 5.36792 195.426 5.36792V4.85131C195.721 4.86771 196.165 4.89231 196.756 4.92512C197.348 4.94151 197.923 4.94972 198.481 4.94972C199.056 4.94972 199.614 4.94151 200.156 4.92512C200.715 4.89231 201.126 4.86771 201.388 4.85131ZM205.799 10.7553V11.2473H198.851V10.7553H205.799ZM226.992 4.85131V5.36792C226.352 5.36792 225.892 5.49091 225.612 5.73691C225.35 5.98291 225.218 6.45032 225.218 7.13912V15.2325C225.218 15.9213 225.35 16.3887 225.612 16.6347C225.892 16.8807 226.352 17.0037 226.992 17.0037V17.5203C226.713 17.5039 226.278 17.4875 225.686 17.4711C225.095 17.4383 224.512 17.4219 223.937 17.4219C223.378 17.4219 222.82 17.4383 222.261 17.4711C221.719 17.4875 221.309 17.5039 221.029 17.5203V17.0037C221.588 17.0037 221.982 16.8807 222.212 16.6347C222.442 16.3887 222.557 15.9213 222.557 15.2325V7.13912C222.557 6.45032 222.442 5.98291 222.212 5.73691C221.982 5.49091 221.588 5.36792 221.029 5.36792V4.85131C221.309 4.86771 221.711 4.89231 222.237 4.92512C222.779 4.94151 223.329 4.94972 223.888 4.94972C224.463 4.94972 225.046 4.94151 225.637 4.92512C226.245 4.89231 226.697 4.86771 226.992 4.85131ZM218.639 4.85131V5.36792C218.097 5.36792 217.703 5.49091 217.457 5.73691C217.227 5.98291 217.112 6.45032 217.112 7.13912V15.2325C217.112 15.9213 217.227 16.3887 217.457 16.6347C217.703 16.8807 218.097 17.0037 218.639 17.0037V17.5203C218.377 17.5039 217.974 17.4875 217.432 17.4711C216.906 17.4383 216.356 17.4219 215.781 17.4219C215.223 17.4219 214.64 17.4383 214.032 17.4711C213.424 17.4875 212.972 17.5039 212.677 17.5203V17.0037C213.317 17.0037 213.769 16.8807 214.032 16.6347C214.311 16.3887 214.451 15.9213 214.451 15.2325V7.13912C214.451 6.45032 214.311 5.98291 214.032 5.73691C213.769 5.49091 213.317 5.36792 212.677 5.36792V4.85131C212.972 4.86771 213.416 4.89231 214.007 4.92512C214.599 4.94151 215.173 4.94972 215.732 4.94972C216.307 4.94972 216.865 4.94151 217.407 4.92512C217.966 4.89231 218.377 4.86771 218.639 4.85131ZM222.828 6.49952L223.222 6.77011L216.767 16.3149L216.348 16.0197L222.828 6.49952ZM241.326 4.48232C241.983 4.48232 242.451 4.63812 242.73 4.94972C243.009 5.26132 243.149 5.62212 243.149 6.03211C243.149 6.47492 243.018 6.83571 242.755 7.11451C242.492 7.39331 242.131 7.53272 241.671 7.53272C241.375 7.53272 241.104 7.46712 240.858 7.33592C240.611 7.20472 240.414 7.01611 240.266 6.77011C240.118 6.52412 240.045 6.22891 240.045 5.88451C240.045 5.78612 240.069 5.68772 240.118 5.58932C240.168 5.47452 240.242 5.38432 240.34 5.31872C240.077 5.38432 239.864 5.53192 239.7 5.76152C239.535 5.97472 239.379 6.27812 239.231 6.67172C239.084 7.04892 238.911 7.52452 238.714 8.09852C238.566 8.54132 238.394 8.96772 238.197 9.37772C237.999 9.77131 237.72 10.1075 237.359 10.3863C237.014 10.6487 236.529 10.8209 235.905 10.9029L236.078 10.7307C237.162 10.6651 238.082 10.7553 238.837 11.0013C239.609 11.2473 240.209 11.6901 240.636 12.3297C240.932 12.7561 241.17 13.2809 241.35 13.9041C241.548 14.5273 241.761 15.1095 241.991 15.6507C242.172 16.0607 242.369 16.3805 242.582 16.6101C242.812 16.8233 243.166 16.9545 243.642 17.0037V17.5203C243.379 17.5695 243.108 17.6105 242.829 17.6433C242.55 17.6761 242.287 17.6925 242.04 17.6925C241.235 17.6925 240.619 17.5121 240.192 17.1513C239.782 16.7905 239.486 16.2657 239.305 15.5769C239.223 15.3145 239.125 14.9865 239.01 14.5929C238.911 14.1829 238.771 13.7729 238.591 13.3629C238.427 12.9365 238.229 12.5757 237.999 12.2805C237.671 11.8213 237.236 11.5179 236.694 11.3703C236.168 11.2227 235.486 11.1653 234.648 11.1981V10.7799C235.519 10.7307 236.184 10.5831 236.644 10.3371C237.104 10.0911 237.457 9.74671 237.704 9.30392C237.95 8.86111 238.18 8.31992 238.394 7.68032C238.558 7.15552 238.739 6.64711 238.936 6.15511C239.133 5.66312 239.412 5.26132 239.773 4.94972C240.151 4.63812 240.669 4.48232 241.326 4.48232ZM236.324 4.85131V5.36792C235.749 5.36792 235.338 5.49091 235.092 5.73691C234.862 5.98291 234.747 6.45032 234.747 7.13912V15.2325C234.747 15.9213 234.862 16.3887 235.092 16.6347C235.338 16.8807 235.749 17.0037 236.324 17.0037V17.5203C236.045 17.5039 235.626 17.4875 235.067 17.4711C234.509 17.4383 233.942 17.4219 233.367 17.4219C232.809 17.4219 232.234 17.4383 231.642 17.4711C231.051 17.4875 230.608 17.5039 230.312 17.5203V17.0037C230.953 17.0037 231.404 16.8807 231.667 16.6347C231.946 16.3887 232.086 15.9213 232.086 15.2325V7.13912C232.086 6.45032 231.946 5.98291 231.667 5.73691C231.404 5.49091 230.953 5.36792 230.312 5.36792V4.85131C230.608 4.86771 231.051 4.89231 231.642 4.92512C232.25 4.94151 232.842 4.94972 233.417 4.94972C233.975 4.94972 234.533 4.94151 235.092 4.92512C235.65 4.89231 236.061 4.86771 236.324 4.85131ZM261.036 4.85131V5.36792C260.395 5.36792 259.935 5.49091 259.656 5.73691C259.393 5.98291 259.262 6.45032 259.262 7.13912V15.2325C259.262 15.9213 259.393 16.3887 259.656 16.6347C259.935 16.8807 260.395 17.0037 261.036 17.0037V17.5203C260.756 17.5039 260.321 17.4875 259.73 17.4711C259.138 17.4383 258.555 17.4219 257.98 17.4219C257.422 17.4219 256.863 17.4383 256.305 17.4711C255.763 17.4875 255.352 17.5039 255.073 17.5203V17.0037C255.631 17.0037 256.026 16.8807 256.256 16.6347C256.486 16.3887 256.601 15.9213 256.601 15.2325V7.13912C256.601 6.45032 256.486 5.98291 256.256 5.73691C256.026 5.49091 255.631 5.36792 255.073 5.36792V4.85131C255.352 4.86771 255.755 4.89231 256.28 4.92512C256.822 4.94151 257.373 4.94972 257.931 4.94972C258.506 4.94972 259.089 4.94151 259.681 4.92512C260.288 4.89231 260.74 4.86771 261.036 4.85131ZM252.683 4.85131V5.36792C252.141 5.36792 251.747 5.49091 251.5 5.73691C251.27 5.98291 251.155 6.45032 251.155 7.13912V15.2325C251.155 15.9213 251.27 16.3887 251.5 16.6347C251.747 16.8807 252.141 17.0037 252.683 17.0037V17.5203C252.42 17.5039 252.018 17.4875 251.476 17.4711C250.95 17.4383 250.4 17.4219 249.825 17.4219C249.266 17.4219 248.683 17.4383 248.075 17.4711C247.468 17.4875 247.016 17.5039 246.72 17.5203V17.0037C247.361 17.0037 247.813 16.8807 248.075 16.6347C248.355 16.3887 248.494 15.9213 248.494 15.2325V7.13912C248.494 6.45032 248.355 5.98291 248.075 5.73691C247.813 5.49091 247.361 5.36792 246.72 5.36792V4.85131C247.016 4.86771 247.459 4.89231 248.051 4.92512C248.642 4.94151 249.217 4.94972 249.775 4.94972C250.35 4.94972 250.909 4.94151 251.451 4.92512C252.009 4.89231 252.42 4.86771 252.683 4.85131ZM256.872 6.49952L257.266 6.77011L250.81 16.3149L250.391 16.0197L256.872 6.49952Z" fill="white"/>
</svg>
