<svg width="262" height="22" viewBox="0 0 262 22" fill="none" xmlns="http://www.w3.org/2000/svg">
<path d="M13.5517 0.10321C13.486 0.72641 13.4367 1.33321 13.4039 1.92361C13.3875 2.49761 13.3792 2.94041 13.3792 3.25201C13.3792 3.56361 13.3875 3.85881 13.4039 4.13761C13.4203 4.41641 13.4367 4.64601 13.4532 4.82641H12.8865C12.7715 3.77681 12.5908 2.94861 12.3444 2.34181C12.1144 1.73501 11.7612 1.30861 11.2849 1.06261C10.8249 0.800211 10.1761 0.66901 9.33837 0.66901H7.63824C7.1126 0.66901 6.71015 0.71821 6.43091 0.81661C6.16808 0.89861 5.98739 1.07901 5.88884 1.35781C5.79028 1.62021 5.741 2.03841 5.741 2.61241V15.0108C5.741 15.5684 5.79028 15.9866 5.88884 16.2654C5.98739 16.5442 6.16808 16.7328 6.43091 16.8312C6.71015 16.9132 7.1126 16.9542 7.63824 16.9542H9.23981C10.1761 16.9542 10.9153 16.8066 11.4574 16.5114C12.0159 16.2162 12.4347 15.7324 12.714 15.06C13.0097 14.3876 13.2314 13.4692 13.3792 12.3048H13.946C13.8967 12.7804 13.872 13.4036 13.872 14.1744C13.872 14.5024 13.8802 14.978 13.8967 15.6012C13.9295 16.2244 13.9788 16.864 14.0445 17.52C13.2068 17.4872 12.2623 17.4708 11.211 17.4708C10.1597 17.4544 9.22338 17.4462 8.40206 17.4462C8.02426 17.4462 7.53968 17.4462 6.94834 17.4462C6.35699 17.4462 5.71636 17.4544 5.02645 17.4708C4.35297 17.4708 3.66307 17.479 2.95674 17.4954C2.26683 17.4954 1.60156 17.5036 0.960938 17.52V17.028C1.51943 16.9952 1.9383 16.9296 2.21755 16.8312C2.4968 16.7328 2.67749 16.536 2.75962 16.2408C2.85818 15.9456 2.90746 15.5028 2.90746 14.9124V2.71081C2.90746 2.10401 2.85818 1.66121 2.75962 1.38241C2.67749 1.08721 2.48859 0.890411 2.19291 0.792011C1.91366 0.677211 1.50301 0.61161 0.960938 0.59521V0.10321C1.60156 0.11961 2.26683 0.13601 2.95674 0.15241C3.66307 0.15241 4.35297 0.160611 5.02645 0.177011C5.71636 0.177011 6.35699 0.177011 6.94834 0.177011C7.53968 0.177011 8.02426 0.177011 8.40206 0.177011C9.15768 0.177011 10.0118 0.177011 10.9646 0.177011C11.9337 0.160611 12.7961 0.13601 13.5517 0.10321ZM9.46156 8.51641C9.46156 8.51641 9.46156 8.59841 9.46156 8.76241C9.46156 8.92641 9.46156 9.00841 9.46156 9.00841H5.00181C5.00181 9.00841 5.00181 8.92641 5.00181 8.76241C5.00181 8.59841 5.00181 8.51641 5.00181 8.51641H9.46156ZM10.1761 5.26921C10.1104 6.20401 10.0776 6.91741 10.0776 7.40941C10.094 7.90141 10.1022 8.35241 10.1022 8.76241C10.1022 9.17241 10.1104 9.62341 10.1268 10.1154C10.1433 10.6074 10.1843 11.3208 10.25 12.2556H9.68332C9.60119 11.7144 9.49442 11.1978 9.36301 10.7058C9.2316 10.1974 8.99341 9.78741 8.64846 9.47581C8.31993 9.16421 7.8025 9.00841 7.09617 9.00841V8.51641C7.62181 8.51641 8.03247 8.40981 8.32815 8.19661C8.64025 7.98341 8.87843 7.70461 9.04269 7.36021C9.20696 7.01581 9.32194 6.66321 9.38765 6.30241C9.46978 5.92521 9.5437 5.58081 9.6094 5.26921H10.1761ZM29.1595 4.85101V5.36761C28.5353 5.36761 28.0918 5.49061 27.829 5.73661C27.5662 5.98261 27.4348 6.45001 27.4348 7.13881V15.2322C27.4348 15.921 27.5662 16.3884 27.829 16.6344C28.1082 16.8804 28.675 17.0034 29.5291 17.0034C29.4634 17.5774 29.4141 18.1268 29.3813 18.6516C29.3649 19.1764 29.3566 19.5782 29.3566 19.857C29.3566 20.1522 29.3649 20.431 29.3813 20.6934C29.3977 20.9722 29.4141 21.2018 29.4306 21.3822H28.8639C28.7489 20.4146 28.601 19.6356 28.4203 19.0452C28.2397 18.4712 27.9604 18.0612 27.5826 17.8152C27.2212 17.5692 26.6956 17.4462 26.0057 17.4462C25.6114 17.4462 25.2418 17.4544 24.8969 17.4708C24.5684 17.4708 24.207 17.479 23.8128 17.4954C23.4185 17.4954 22.9668 17.5036 22.4576 17.52C21.9484 17.52 21.3324 17.52 20.6096 17.52C19.9197 17.52 19.3859 17.6348 19.0081 17.8644C18.6302 18.1104 18.351 18.5122 18.1703 19.0698C17.9896 19.6438 17.85 20.4146 17.7514 21.3822H17.1847C17.2176 21.2018 17.234 20.9722 17.234 20.6934C17.2504 20.431 17.2586 20.1522 17.2586 19.857C17.2586 19.5782 17.2422 19.1764 17.2094 18.6516C17.1929 18.1268 17.1519 17.5774 17.0862 17.0034H23.1475C23.7388 17.0034 24.1577 16.8804 24.4041 16.6344C24.6505 16.3884 24.7737 15.921 24.7737 15.2322V7.13881C24.7737 6.45001 24.6587 5.98261 24.4287 5.73661C24.1988 5.49061 23.8045 5.36761 23.246 5.36761H23.0243C22.4494 5.36761 22.0634 5.49881 21.8662 5.76121C21.6855 6.00721 21.5623 6.46641 21.4966 7.13881C21.4309 8.05721 21.3406 9.00841 21.2256 9.99241C21.1271 10.96 20.9874 11.903 20.8067 12.8214C20.6425 13.7234 20.4043 14.5434 20.0922 15.2814C19.8787 15.7898 19.5994 16.2408 19.2544 16.6344C18.9259 17.0116 18.4906 17.2412 17.9486 17.3232L17.5543 17.0034C18.08 17.0034 18.5153 16.8148 18.8602 16.4376C19.2216 16.0604 19.4926 15.634 19.6733 15.1584C19.9526 14.4368 20.1743 13.6414 20.3386 12.7722C20.5193 11.903 20.6671 10.9928 20.7821 10.0416C20.8971 9.07401 20.9874 8.10641 21.0531 7.13881C21.1024 6.45001 20.9546 5.98261 20.6096 5.73661C20.2811 5.49061 19.7801 5.36761 19.1066 5.36761V4.85101C19.238 4.86741 19.4434 4.89201 19.7226 4.92481C20.0183 4.94121 20.3632 4.94941 20.7575 4.94941C21.1517 4.94941 21.5541 4.93301 21.9648 4.90021C22.3755 4.86741 22.8272 4.85101 23.32 4.85101C23.8456 4.85101 24.3138 4.86741 24.7244 4.90021C25.1351 4.93301 25.6114 4.94941 26.1535 4.94941C26.712 4.94941 27.2787 4.94121 27.8536 4.92481C28.4286 4.89201 28.8639 4.86741 29.1595 4.85101ZM46.9795 4.85101V5.36761C46.3388 5.36761 45.8789 5.49061 45.5997 5.73661C45.3368 5.98261 45.2054 6.45001 45.2054 7.13881V15.2322C45.2054 15.921 45.3368 16.3884 45.5997 16.6344C45.8789 16.8804 46.3388 17.0034 46.9795 17.0034V17.52C46.7002 17.5036 46.2649 17.4872 45.6736 17.4708C45.0822 17.438 44.4991 17.4216 43.9242 17.4216C43.3657 17.4216 42.8072 17.438 42.2487 17.4708C41.7066 17.4872 41.296 17.5036 41.0167 17.52V17.0034C41.5752 17.0034 41.9694 16.8804 42.1994 16.6344C42.4294 16.3884 42.5444 15.921 42.5444 15.2322V7.13881C42.5444 6.45001 42.4294 5.98261 42.1994 5.73661C41.9694 5.49061 41.5752 5.36761 41.0167 5.36761V4.85101C41.296 4.86741 41.6984 4.89201 42.224 4.92481C42.7661 4.94121 43.3164 4.94941 43.8749 4.94941C44.4498 4.94941 45.033 4.94121 45.6243 4.92481C46.2321 4.89201 46.6838 4.86741 46.9795 4.85101ZM38.6267 4.85101V5.36761C38.0846 5.36761 37.6904 5.49061 37.444 5.73661C37.214 5.98261 37.099 6.45001 37.099 7.13881V15.2322C37.099 15.921 37.214 16.3884 37.444 16.6344C37.6904 16.8804 38.0846 17.0034 38.6267 17.0034V17.52C38.3639 17.5036 37.9614 17.4872 37.4193 17.4708C36.8937 17.438 36.3434 17.4216 35.7685 17.4216C35.21 17.4216 34.6269 17.438 34.0191 17.4708C33.4113 17.4872 32.9596 17.5036 32.6639 17.52V17.0034C33.3045 17.0034 33.7563 16.8804 34.0191 16.6344C34.2983 16.3884 34.438 15.921 34.438 15.2322V7.13881C34.438 6.45001 34.2983 5.98261 34.0191 5.73661C33.7563 5.49061 33.3045 5.36761 32.6639 5.36761V4.85101C32.9596 4.86741 33.4031 4.89201 33.9945 4.92481C34.5858 4.94121 35.1607 4.94941 35.7192 4.94941C36.2941 4.94941 36.8526 4.94121 37.3947 4.92481C37.9532 4.89201 38.3639 4.86741 38.6267 4.85101ZM42.8154 6.49921L43.2096 6.76981L36.7541 16.3146L36.3352 16.0194L42.8154 6.49921ZM64.2207 4.85101V5.36761C63.5801 5.36761 63.1201 5.49061 62.8409 5.73661C62.5781 5.98261 62.4467 6.45001 62.4467 7.13881V15.2322C62.4467 15.921 62.5781 16.3884 62.8409 16.6344C63.1201 16.8804 63.5801 17.0034 64.2207 17.0034V17.52C63.9415 17.5036 63.5062 17.4872 62.9148 17.4708C62.3235 17.438 61.7403 17.4216 61.1654 17.4216C60.6069 17.4216 60.0484 17.438 59.4899 17.4708C58.9479 17.4872 58.5372 17.5036 58.258 17.52V17.0034C58.8165 17.0034 59.2107 16.8804 59.4406 16.6344C59.6706 16.3884 59.7856 15.921 59.7856 15.2322V7.13881C59.7856 6.45001 59.6706 5.98261 59.4406 5.73661C59.2107 5.49061 58.8165 5.36761 58.258 5.36761V4.85101C58.5372 4.86741 58.9396 4.89201 59.4653 4.92481C60.0074 4.94121 60.5576 4.94941 61.1161 4.94941C61.6911 4.94941 62.2742 4.94121 62.8655 4.92481C63.4733 4.89201 63.925 4.86741 64.2207 4.85101ZM56.2622 4.85101V5.36761C55.7201 5.36761 55.3259 5.49061 55.0795 5.73661C54.8495 5.98261 54.7345 6.45001 54.7345 7.13881V15.2322C54.7345 15.921 54.8495 16.3884 55.0795 16.6344C55.3259 16.8804 55.7201 17.0034 56.2622 17.0034V17.52C55.9993 17.5036 55.5969 17.4872 55.0548 17.4708C54.5292 17.438 53.9789 17.4216 53.404 17.4216C52.8455 17.4216 52.2623 17.438 51.6546 17.4708C51.0468 17.4872 50.5951 17.5036 50.2994 17.52V17.0034C50.94 17.0034 51.3917 16.8804 51.6546 16.6344C51.9338 16.3884 52.0734 15.921 52.0734 15.2322V7.13881C52.0734 6.45001 51.9338 5.98261 51.6546 5.73661C51.3917 5.49061 50.94 5.36761 50.2994 5.36761V4.85101C50.5951 4.86741 51.0386 4.89201 51.6299 4.92481C52.2213 4.94121 52.7962 4.94941 53.3547 4.94941C53.9296 4.94941 54.4881 4.94121 55.0302 4.92481C55.5887 4.89201 55.9993 4.86741 56.2622 4.85101ZM60.6726 10.755V11.247H53.7243V10.755H60.6726ZM73.7098 4.48201C74.8104 4.48201 75.7877 4.71161 76.6419 5.17081C77.4961 5.63001 78.1777 6.35161 78.687 7.33561C79.1962 8.31961 79.4508 9.60701 79.4508 11.1978C79.4508 12.7886 79.1962 14.076 78.687 15.06C78.1777 16.0276 77.4961 16.741 76.6419 17.2002C75.7877 17.643 74.8104 17.8644 73.7098 17.8644C72.6257 17.8644 71.6483 17.643 70.7777 17.2002C69.9071 16.741 69.2172 16.0276 68.708 15.06C68.2152 14.076 67.9688 12.7886 67.9688 11.1978C67.9688 9.60701 68.2152 8.31961 68.708 7.33561C69.2172 6.35161 69.9071 5.63001 70.7777 5.17081C71.6483 4.71161 72.6257 4.48201 73.7098 4.48201ZM73.7098 4.97401C72.8556 4.97401 72.1575 5.46601 71.6154 6.45001C71.0734 7.41761 70.8023 9.00021 70.8023 11.1978C70.8023 13.3954 71.0734 14.978 71.6154 15.9456C72.1575 16.8968 72.8556 17.3724 73.7098 17.3724C74.5475 17.3724 75.2374 16.8968 75.7795 15.9456C76.338 14.978 76.6172 13.3954 76.6172 11.1978C76.6172 9.00021 76.338 7.41761 75.7795 6.45001C75.2374 5.46601 74.5475 4.97401 73.7098 4.97401ZM99.574 4.82641V5.34301C99.0647 5.34301 98.6787 5.40041 98.4159 5.51521C98.1531 5.61361 97.9724 5.81041 97.8738 6.10561C97.7917 6.38441 97.7506 6.81081 97.7506 7.38481V14.9862C97.7506 15.5438 97.7917 15.9702 97.8738 16.2654C97.9724 16.5442 98.1531 16.7328 98.4159 16.8312C98.6787 16.9296 99.0647 16.9952 99.574 17.028V17.52C99.2126 17.4872 98.7526 17.4708 98.1941 17.4708C97.6356 17.4544 97.0607 17.4462 96.4694 17.4462C95.8288 17.4462 95.2128 17.4544 94.6214 17.4708C94.0301 17.4708 93.5619 17.4872 93.217 17.52V17.028C93.7262 16.9952 94.1122 16.9296 94.375 16.8312C94.6543 16.7328 94.8432 16.5442 94.9417 16.2654C95.0403 15.9702 95.0896 15.5438 95.0896 14.9862V6.25321L90.4573 17.643H90.0631L85.5787 6.40081V14.6172C85.5787 15.224 85.628 15.6996 85.7266 16.044C85.8415 16.3884 86.0469 16.6344 86.3425 16.782C86.6382 16.9132 87.0817 16.9952 87.6731 17.028V17.52C87.361 17.4872 86.9996 17.4708 86.5889 17.4708C86.1947 17.4544 85.7758 17.4462 85.3323 17.4462C84.9381 17.4462 84.5356 17.4544 84.125 17.4708C83.7308 17.4708 83.4022 17.4872 83.1394 17.52V17.028C83.665 16.9952 84.0675 16.905 84.3467 16.7574C84.626 16.6098 84.8067 16.3638 84.8888 16.0194C84.9874 15.6586 85.0367 15.1748 85.0367 14.568V7.43401C85.0367 6.82721 84.9874 6.38441 84.8888 6.10561C84.8067 5.81041 84.626 5.61361 84.3467 5.51521C84.0675 5.40041 83.665 5.33481 83.1394 5.31841V4.82641C83.4022 4.84281 83.7308 4.85921 84.125 4.87561C84.5356 4.89201 84.9381 4.90021 85.3323 4.90021C86.2358 4.90021 87.0242 4.87561 87.6977 4.82641L91.4676 14.6418L90.9748 15.1338L95.0896 4.90021C95.3031 4.90021 95.5331 4.90841 95.7795 4.92481C96.0259 4.92481 96.2723 4.92481 96.5187 4.92481C97.11 4.92481 97.6685 4.91661 98.1941 4.90021C98.7362 4.86741 99.1961 4.84281 99.574 4.82641ZM109.053 4.85101V5.36761C108.412 5.36761 107.952 5.49061 107.673 5.73661C107.41 5.98261 107.279 6.45001 107.279 7.13881V15.4044C107.279 16.0112 107.353 16.4294 107.5 16.659C107.648 16.8886 107.919 17.0034 108.314 17.0034C109.151 17.0034 109.792 16.8558 110.235 16.5606C110.679 16.2654 110.983 15.8718 111.147 15.3798C111.311 14.8878 111.394 14.3712 111.394 13.83C111.394 12.682 111.09 11.8538 110.482 11.3454C109.891 10.837 108.897 10.5828 107.5 10.5828C107.221 10.5828 106.934 10.5828 106.638 10.5828C106.342 10.5828 106.063 10.5828 105.8 10.5828L105.751 10.14C106.326 10.14 106.876 10.14 107.402 10.14C107.944 10.14 108.47 10.14 108.979 10.14C110.835 10.14 112.157 10.4762 112.946 11.1486C113.751 11.8046 114.153 12.641 114.153 13.6578C114.153 14.2646 113.972 14.8632 113.611 15.4536C113.266 16.044 112.683 16.536 111.862 16.9296C111.057 17.3232 109.973 17.52 108.609 17.52C108.231 17.52 107.804 17.5036 107.328 17.4708C106.868 17.438 106.392 17.4216 105.899 17.4216C105.373 17.4216 104.815 17.438 104.223 17.4708C103.632 17.4872 103.189 17.5036 102.893 17.52V17.0034C103.517 17.0034 103.961 16.8804 104.223 16.6344C104.486 16.3884 104.618 15.921 104.618 15.2322V7.13881C104.618 6.45001 104.503 5.98261 104.273 5.73661C104.043 5.49061 103.648 5.36761 103.09 5.36761V4.85101C103.369 4.86741 103.772 4.89201 104.297 4.92481C104.839 4.94121 105.39 4.94941 105.948 4.94941C106.523 4.94941 107.106 4.94121 107.698 4.92481C108.305 4.89201 108.757 4.86741 109.053 4.85101ZM120.683 4.85101V5.36761C120.108 5.36761 119.697 5.49061 119.451 5.73661C119.221 5.98261 119.106 6.45001 119.106 7.13881V15.2322C119.106 15.921 119.237 16.3884 119.5 16.6344C119.779 16.8804 120.239 17.0034 120.88 17.0034V17.52C120.584 17.5036 120.124 17.4872 119.5 17.4708C118.892 17.438 118.301 17.4216 117.726 17.4216C117.2 17.4216 116.658 17.438 116.1 17.4708C115.541 17.4872 115.131 17.5036 114.868 17.52V17.0034C115.443 17.0034 115.845 16.8804 116.075 16.6344C116.321 16.3884 116.445 15.921 116.445 15.2322V7.13881C116.445 6.45001 116.321 5.98261 116.075 5.73661C115.845 5.49061 115.443 5.36761 114.868 5.36761V4.85101C115.147 4.86741 115.566 4.89201 116.124 4.92481C116.699 4.94121 117.25 4.94941 117.775 4.94941C118.334 4.94941 118.884 4.94121 119.426 4.92481C119.984 4.89201 120.403 4.86741 120.683 4.85101ZM144.244 4.85101V5.36761C143.603 5.36761 143.143 5.49061 142.864 5.73661C142.601 5.98261 142.47 6.45001 142.47 7.13881V15.2322C142.47 15.921 142.601 16.3884 142.864 16.6344C143.143 16.8804 143.603 17.0034 144.244 17.0034V17.52C144.063 17.5036 143.8 17.4954 143.455 17.4954C143.11 17.479 142.741 17.4626 142.346 17.4462C141.952 17.4298 141.574 17.4216 141.213 17.4216C140.589 17.4216 139.997 17.438 139.439 17.4708C138.881 17.5036 138.289 17.52 137.665 17.52C137.057 17.52 136.458 17.5036 135.866 17.4708C135.291 17.438 134.733 17.4216 134.191 17.4216C133.665 17.4216 133.115 17.438 132.54 17.4708C131.981 17.5036 131.398 17.52 130.791 17.52C130.396 17.52 130.01 17.5118 129.633 17.4954C129.255 17.479 128.869 17.4626 128.474 17.4462C128.08 17.4298 127.661 17.4216 127.218 17.4216C126.856 17.4216 126.47 17.4298 126.06 17.4462C125.666 17.4626 125.296 17.479 124.951 17.4954C124.622 17.4954 124.351 17.5036 124.138 17.52V17.0034C124.779 17.0034 125.23 16.8804 125.493 16.6344C125.772 16.3884 125.912 15.921 125.912 15.2322V7.13881C125.912 6.45001 125.772 5.98261 125.493 5.73661C125.23 5.49061 124.779 5.36761 124.138 5.36761V4.85101C124.434 4.86741 124.877 4.89201 125.468 4.92481C126.076 4.94121 126.651 4.94941 127.193 4.94941C127.752 4.94941 128.277 4.94121 128.77 4.92481C129.279 4.89201 129.657 4.86741 129.904 4.85101V5.36761C129.427 5.36761 129.082 5.49061 128.869 5.73661C128.672 5.98261 128.573 6.45001 128.573 7.13881V15.2322C128.573 15.921 128.696 16.3884 128.943 16.6344C129.189 16.8804 129.616 17.0034 130.224 17.0034H131.333C131.891 17.0034 132.285 16.8804 132.515 16.6344C132.745 16.3884 132.86 15.921 132.86 15.2322V7.13881C132.86 6.45001 132.762 5.98261 132.565 5.73661C132.367 5.49061 132.023 5.36761 131.53 5.36761V4.85101C131.776 4.86741 132.154 4.89201 132.663 4.92481C133.172 4.94121 133.673 4.94941 134.166 4.94941C134.675 4.94941 135.185 4.94121 135.694 4.92481C136.219 4.89201 136.605 4.86741 136.852 4.85101V5.36761C136.359 5.36761 136.014 5.49061 135.817 5.73661C135.62 5.98261 135.521 6.45001 135.521 7.13881V15.2322C135.521 15.921 135.636 16.3884 135.866 16.6344C136.096 16.8804 136.49 17.0034 137.049 17.0034H138.281C138.839 17.0034 139.234 16.8804 139.464 16.6344C139.694 16.3884 139.809 15.921 139.809 15.2322V7.13881C139.809 6.45001 139.71 5.98261 139.513 5.73661C139.316 5.49061 138.971 5.36761 138.478 5.36761V4.85101C138.724 4.86741 139.094 4.89201 139.587 4.92481C140.096 4.94121 140.622 4.94941 141.164 4.94941C141.722 4.94941 142.297 4.94121 142.889 4.92481C143.496 4.89201 143.948 4.86741 144.244 4.85101ZM160.411 4.85101V5.36761C159.786 5.36761 159.343 5.49061 159.08 5.73661C158.817 5.98261 158.686 6.45001 158.686 7.13881V15.2322C158.686 15.921 158.817 16.3884 159.08 16.6344C159.359 16.8804 159.803 17.0034 160.411 17.0034V17.52C160.131 17.5036 159.712 17.4872 159.154 17.4708C158.612 17.438 158.012 17.4216 157.355 17.4216C156.715 17.4216 156.058 17.438 155.384 17.4708C154.727 17.4872 154.218 17.5036 153.856 17.52V17.0034C154.563 17.0034 155.097 16.8886 155.458 16.659C155.836 16.413 156.025 15.9374 156.025 15.2322V7.13881C156.025 6.45001 155.91 5.98261 155.68 5.73661C155.45 5.49061 155.056 5.36761 154.497 5.36761H154.275C153.865 5.36761 153.594 5.49881 153.462 5.76121C153.347 6.00721 153.257 6.46641 153.191 7.13881C153.06 8.66401 152.895 10.1236 152.698 11.5176C152.518 12.9116 152.206 14.1662 151.762 15.2814C151.581 15.7078 151.36 16.126 151.097 16.536C150.85 16.9296 150.546 17.2494 150.185 17.4954C149.84 17.7414 149.43 17.8644 148.953 17.8644C148.641 17.8644 148.337 17.7988 148.041 17.6676C147.746 17.5528 147.499 17.3724 147.302 17.1264C147.105 16.864 147.007 16.536 147.007 16.1424C147.007 15.6504 147.146 15.2732 147.425 15.0108C147.721 14.732 148.099 14.5926 148.559 14.5926C148.97 14.5926 149.306 14.7156 149.569 14.9616C149.832 15.2076 149.963 15.5438 149.963 15.9702C149.963 16.3146 149.865 16.6098 149.668 16.8558C149.471 17.1018 149.191 17.2986 148.83 17.4462C148.863 17.4626 148.904 17.4708 148.953 17.4708C149.019 17.4708 149.068 17.4708 149.101 17.4708C149.495 17.4708 149.832 17.3478 150.111 17.1018C150.407 16.8394 150.653 16.5278 150.85 16.167C151.064 15.8062 151.228 15.47 151.343 15.1584C151.622 14.4696 151.844 13.6906 152.008 12.8214C152.189 11.9522 152.337 11.0338 152.452 10.0662C152.567 9.09861 152.657 8.12281 152.723 7.13881C152.772 6.45001 152.624 5.98261 152.279 5.73661C151.951 5.49061 151.45 5.36761 150.776 5.36761V4.85101C150.908 4.86741 151.113 4.89201 151.392 4.92481C151.688 4.94121 152.033 4.94941 152.427 4.94941C152.756 4.94941 153.093 4.94941 153.438 4.94941C153.782 4.93301 154.16 4.92481 154.571 4.92481C154.932 4.92481 155.253 4.93301 155.532 4.94941C155.828 4.94941 156.123 4.94941 156.419 4.94941C156.731 4.94941 157.068 4.94941 157.429 4.94941C157.791 4.94941 158.16 4.94121 158.538 4.92481C158.932 4.90841 159.294 4.89201 159.622 4.87561C159.967 4.85921 160.23 4.85101 160.411 4.85101ZM169.875 4.48201C171.32 4.48201 172.453 4.91661 173.275 5.78581C174.096 6.65501 174.507 8.03261 174.507 9.91861H166.006L165.957 9.45121H171.895C171.911 8.64761 171.846 7.90961 171.698 7.23721C171.55 6.54841 171.32 5.99901 171.008 5.58901C170.696 5.17901 170.285 4.97401 169.776 4.97401C169.07 4.97401 168.454 5.35121 167.928 6.10561C167.419 6.84361 167.107 8.03261 166.992 9.67261L167.066 9.79561C167.049 10.0252 167.033 10.2794 167.016 10.5582C167 10.8206 166.992 11.083 166.992 11.3454C166.992 12.477 167.164 13.4282 167.509 14.199C167.854 14.9698 168.306 15.552 168.864 15.9456C169.423 16.3228 169.99 16.5114 170.564 16.5114C171.008 16.5114 171.435 16.4458 171.846 16.3146C172.273 16.167 172.675 15.9292 173.053 15.6012C173.431 15.2568 173.768 14.7894 174.063 14.199L174.556 14.3958C174.359 14.9534 174.055 15.5028 173.644 16.044C173.234 16.5852 172.708 17.028 172.067 17.3724C171.427 17.7004 170.679 17.8644 169.825 17.8644C168.675 17.8644 167.673 17.6102 166.819 17.1018C165.965 16.577 165.308 15.8308 164.848 14.8632C164.388 13.8956 164.158 12.7476 164.158 11.4192C164.158 9.95961 164.396 8.71321 164.873 7.68001C165.349 6.64681 166.014 5.85961 166.869 5.31841C167.739 4.76081 168.741 4.48201 169.875 4.48201ZM192.097 4.85101V5.36761C191.456 5.36761 190.996 5.49061 190.717 5.73661C190.454 5.98261 190.323 6.45001 190.323 7.13881V15.2322C190.323 15.921 190.454 16.3884 190.717 16.6344C190.996 16.8804 191.456 17.0034 192.097 17.0034V17.52C191.818 17.5036 191.382 17.4872 190.791 17.4708C190.2 17.438 189.617 17.4216 189.042 17.4216C188.483 17.4216 187.925 17.438 187.366 17.4708C186.824 17.4872 186.413 17.5036 186.134 17.52V17.0034C186.693 17.0034 187.087 16.8804 187.317 16.6344C187.547 16.3884 187.662 15.921 187.662 15.2322V7.13881C187.662 6.45001 187.547 5.98261 187.317 5.73661C187.087 5.49061 186.693 5.36761 186.134 5.36761V4.85101C186.413 4.86741 186.816 4.89201 187.341 4.92481C187.884 4.94121 188.434 4.94941 188.992 4.94941C189.567 4.94941 190.15 4.94121 190.742 4.92481C191.35 4.89201 191.801 4.86741 192.097 4.85101ZM184.138 4.85101V5.36761C183.596 5.36761 183.202 5.49061 182.956 5.73661C182.726 5.98261 182.611 6.45001 182.611 7.13881V15.2322C182.611 15.921 182.726 16.3884 182.956 16.6344C183.202 16.8804 183.596 17.0034 184.138 17.0034V17.52C183.876 17.5036 183.473 17.4872 182.931 17.4708C182.405 17.438 181.855 17.4216 181.28 17.4216C180.722 17.4216 180.139 17.438 179.531 17.4708C178.923 17.4872 178.471 17.5036 178.176 17.52V17.0034C178.816 17.0034 179.268 16.8804 179.531 16.6344C179.81 16.3884 179.95 15.921 179.95 15.2322V7.13881C179.95 6.45001 179.81 5.98261 179.531 5.73661C179.268 5.49061 178.816 5.36761 178.176 5.36761V4.85101C178.471 4.86741 178.915 4.89201 179.506 4.92481C180.097 4.94121 180.672 4.94941 181.231 4.94941C181.806 4.94941 182.364 4.94121 182.906 4.92481C183.465 4.89201 183.876 4.86741 184.138 4.85101ZM188.549 10.755V11.247H181.6V10.755H188.549ZM209.347 4.85101V5.36761C208.706 5.36761 208.246 5.49061 207.967 5.73661C207.704 5.98261 207.573 6.45001 207.573 7.13881V15.2322C207.573 15.921 207.704 16.3884 207.967 16.6344C208.246 16.8804 208.706 17.0034 209.347 17.0034V17.52C209.068 17.5036 208.632 17.4872 208.041 17.4708C207.45 17.438 206.867 17.4216 206.292 17.4216C205.733 17.4216 205.175 17.438 204.616 17.4708C204.074 17.4872 203.664 17.5036 203.384 17.52V17.0034C203.943 17.0034 204.337 16.8804 204.567 16.6344C204.797 16.3884 204.912 15.921 204.912 15.2322V7.13881C204.912 6.45001 204.797 5.98261 204.567 5.73661C204.337 5.49061 203.943 5.36761 203.384 5.36761V4.85101C203.664 4.86741 204.066 4.89201 204.592 4.92481C205.134 4.94121 205.684 4.94941 206.242 4.94941C206.817 4.94941 207.4 4.94121 207.992 4.92481C208.6 4.89201 209.051 4.86741 209.347 4.85101ZM201.388 4.85101V5.36761C200.846 5.36761 200.452 5.49061 200.206 5.73661C199.976 5.98261 199.861 6.45001 199.861 7.13881V15.2322C199.861 15.921 199.976 16.3884 200.206 16.6344C200.452 16.8804 200.846 17.0034 201.388 17.0034V17.52C201.126 17.5036 200.723 17.4872 200.181 17.4708C199.655 17.438 199.105 17.4216 198.53 17.4216C197.972 17.4216 197.389 17.438 196.781 17.4708C196.173 17.4872 195.721 17.5036 195.426 17.52V17.0034C196.066 17.0034 196.518 16.8804 196.781 16.6344C197.06 16.3884 197.2 15.921 197.2 15.2322V7.13881C197.2 6.45001 197.06 5.98261 196.781 5.73661C196.518 5.49061 196.066 5.36761 195.426 5.36761V4.85101C195.721 4.86741 196.165 4.89201 196.756 4.92481C197.348 4.94121 197.923 4.94941 198.481 4.94941C199.056 4.94941 199.614 4.94121 200.156 4.92481C200.715 4.89201 201.126 4.86741 201.388 4.85101ZM205.799 10.755V11.247H198.851V10.755H205.799ZM226.992 4.85101V5.36761C226.352 5.36761 225.892 5.49061 225.612 5.73661C225.35 5.98261 225.218 6.45001 225.218 7.13881V15.2322C225.218 15.921 225.35 16.3884 225.612 16.6344C225.892 16.8804 226.352 17.0034 226.992 17.0034V17.52C226.713 17.5036 226.278 17.4872 225.686 17.4708C225.095 17.438 224.512 17.4216 223.937 17.4216C223.378 17.4216 222.82 17.438 222.261 17.4708C221.719 17.4872 221.309 17.5036 221.029 17.52V17.0034C221.588 17.0034 221.982 16.8804 222.212 16.6344C222.442 16.3884 222.557 15.921 222.557 15.2322V7.13881C222.557 6.45001 222.442 5.98261 222.212 5.73661C221.982 5.49061 221.588 5.36761 221.029 5.36761V4.85101C221.309 4.86741 221.711 4.89201 222.237 4.92481C222.779 4.94121 223.329 4.94941 223.888 4.94941C224.463 4.94941 225.046 4.94121 225.637 4.92481C226.245 4.89201 226.697 4.86741 226.992 4.85101ZM218.639 4.85101V5.36761C218.097 5.36761 217.703 5.49061 217.457 5.73661C217.227 5.98261 217.112 6.45001 217.112 7.13881V15.2322C217.112 15.921 217.227 16.3884 217.457 16.6344C217.703 16.8804 218.097 17.0034 218.639 17.0034V17.52C218.377 17.5036 217.974 17.4872 217.432 17.4708C216.906 17.438 216.356 17.4216 215.781 17.4216C215.223 17.4216 214.64 17.438 214.032 17.4708C213.424 17.4872 212.972 17.5036 212.677 17.52V17.0034C213.317 17.0034 213.769 16.8804 214.032 16.6344C214.311 16.3884 214.451 15.921 214.451 15.2322V7.13881C214.451 6.45001 214.311 5.98261 214.032 5.73661C213.769 5.49061 213.317 5.36761 212.677 5.36761V4.85101C212.972 4.86741 213.416 4.89201 214.007 4.92481C214.599 4.94121 215.173 4.94941 215.732 4.94941C216.307 4.94941 216.865 4.94121 217.407 4.92481C217.966 4.89201 218.377 4.86741 218.639 4.85101ZM222.828 6.49921L223.222 6.76981L216.767 16.3146L216.348 16.0194L222.828 6.49921ZM241.326 4.48201C241.983 4.48201 242.451 4.63781 242.73 4.94941C243.009 5.26101 243.149 5.62181 243.149 6.03181C243.149 6.47461 243.018 6.83541 242.755 7.11421C242.492 7.39301 242.131 7.53241 241.671 7.53241C241.375 7.53241 241.104 7.46681 240.858 7.33561C240.611 7.20441 240.414 7.01581 240.266 6.76981C240.118 6.52381 240.045 6.22861 240.045 5.88421C240.045 5.78581 240.069 5.68741 240.118 5.58901C240.168 5.47421 240.242 5.38401 240.34 5.31841C240.077 5.38401 239.864 5.53161 239.7 5.76121C239.535 5.97441 239.379 6.27781 239.231 6.67141C239.084 7.04861 238.911 7.52421 238.714 8.09821C238.566 8.54101 238.394 8.96741 238.197 9.37741C237.999 9.77101 237.72 10.1072 237.359 10.386C237.014 10.6484 236.529 10.8206 235.905 10.9026L236.078 10.7304C237.162 10.6648 238.082 10.755 238.837 11.001C239.609 11.247 240.209 11.6898 240.636 12.3294C240.932 12.7558 241.17 13.2806 241.35 13.9038C241.548 14.527 241.761 15.1092 241.991 15.6504C242.172 16.0604 242.369 16.3802 242.582 16.6098C242.812 16.823 243.166 16.9542 243.642 17.0034V17.52C243.379 17.5692 243.108 17.6102 242.829 17.643C242.55 17.6758 242.287 17.6922 242.04 17.6922C241.235 17.6922 240.619 17.5118 240.192 17.151C239.782 16.7902 239.486 16.2654 239.305 15.5766C239.223 15.3142 239.125 14.9862 239.01 14.5926C238.911 14.1826 238.771 13.7726 238.591 13.3626C238.427 12.9362 238.229 12.5754 237.999 12.2802C237.671 11.821 237.236 11.5176 236.694 11.37C236.168 11.2224 235.486 11.165 234.648 11.1978V10.7796C235.519 10.7304 236.184 10.5828 236.644 10.3368C237.104 10.0908 237.457 9.74641 237.704 9.30361C237.95 8.86081 238.18 8.31961 238.394 7.68001C238.558 7.15521 238.739 6.64681 238.936 6.15481C239.133 5.66281 239.412 5.26101 239.773 4.94941C240.151 4.63781 240.669 4.48201 241.326 4.48201ZM236.324 4.85101V5.36761C235.749 5.36761 235.338 5.49061 235.092 5.73661C234.862 5.98261 234.747 6.45001 234.747 7.13881V15.2322C234.747 15.921 234.862 16.3884 235.092 16.6344C235.338 16.8804 235.749 17.0034 236.324 17.0034V17.52C236.045 17.5036 235.626 17.4872 235.067 17.4708C234.509 17.438 233.942 17.4216 233.367 17.4216C232.809 17.4216 232.234 17.438 231.642 17.4708C231.051 17.4872 230.608 17.5036 230.312 17.52V17.0034C230.953 17.0034 231.404 16.8804 231.667 16.6344C231.946 16.3884 232.086 15.921 232.086 15.2322V7.13881C232.086 6.45001 231.946 5.98261 231.667 5.73661C231.404 5.49061 230.953 5.36761 230.312 5.36761V4.85101C230.608 4.86741 231.051 4.89201 231.642 4.92481C232.25 4.94121 232.842 4.94941 233.417 4.94941C233.975 4.94941 234.533 4.94121 235.092 4.92481C235.65 4.89201 236.061 4.86741 236.324 4.85101ZM261.036 4.85101V5.36761C260.395 5.36761 259.935 5.49061 259.656 5.73661C259.393 5.98261 259.262 6.45001 259.262 7.13881V15.2322C259.262 15.921 259.393 16.3884 259.656 16.6344C259.935 16.8804 260.395 17.0034 261.036 17.0034V17.52C260.756 17.5036 260.321 17.4872 259.73 17.4708C259.138 17.438 258.555 17.4216 257.98 17.4216C257.422 17.4216 256.863 17.438 256.305 17.4708C255.763 17.4872 255.352 17.5036 255.073 17.52V17.0034C255.631 17.0034 256.026 16.8804 256.256 16.6344C256.486 16.3884 256.601 15.921 256.601 15.2322V7.13881C256.601 6.45001 256.486 5.98261 256.256 5.73661C256.026 5.49061 255.631 5.36761 255.073 5.36761V4.85101C255.352 4.86741 255.755 4.89201 256.28 4.92481C256.822 4.94121 257.373 4.94941 257.931 4.94941C258.506 4.94941 259.089 4.94121 259.681 4.92481C260.288 4.89201 260.74 4.86741 261.036 4.85101ZM252.683 4.85101V5.36761C252.141 5.36761 251.747 5.49061 251.5 5.73661C251.27 5.98261 251.155 6.45001 251.155 7.13881V15.2322C251.155 15.921 251.27 16.3884 251.5 16.6344C251.747 16.8804 252.141 17.0034 252.683 17.0034V17.52C252.42 17.5036 252.018 17.4872 251.476 17.4708C250.95 17.438 250.4 17.4216 249.825 17.4216C249.266 17.4216 248.683 17.438 248.075 17.4708C247.468 17.4872 247.016 17.5036 246.72 17.52V17.0034C247.361 17.0034 247.813 16.8804 248.075 16.6344C248.355 16.3884 248.494 15.921 248.494 15.2322V7.13881C248.494 6.45001 248.355 5.98261 248.075 5.73661C247.813 5.49061 247.361 5.36761 246.72 5.36761V4.85101C247.016 4.86741 247.459 4.89201 248.051 4.92481C248.642 4.94121 249.217 4.94941 249.775 4.94941C250.35 4.94941 250.909 4.94121 251.451 4.92481C252.009 4.89201 252.42 4.86741 252.683 4.85101ZM256.872 6.49921L257.266 6.76981L250.81 16.3146L250.391 16.0194L256.872 6.49921Z" fill="#4DBCE9"/>
</svg>
