<svg width="20" height="24" viewBox="0 0 20 24" fill="none" xmlns="http://www.w3.org/2000/svg">
<path d="M1.03287 0.0656147C0.775058 0.159365 0.550058 0.351553 0.404745 0.599991L0.273495 0.820303L0.259433 9.51093C0.254745 15.4031 0.26412 18.2531 0.296933 18.3797C0.367245 18.6422 0.615683 18.9375 0.88287 19.0734C1.0985 19.1859 1.16412 19.1953 1.87662 19.2094L2.64068 19.2234V20.0203C2.64068 20.8875 2.6735 21.0469 2.91256 21.3C3.16568 21.5672 3.32975 21.6094 4.22506 21.6094H5.03131V22.4156C5.03131 23.1 5.04537 23.2547 5.12037 23.4141C5.22818 23.6531 5.49068 23.8875 5.72037 23.9484C5.99693 24.0281 18.8079 24.0187 19.0657 23.9437C19.3141 23.8687 19.6188 23.5641 19.6938 23.3156C19.736 23.1656 19.7501 21.1547 19.7501 14.3391C19.7501 5.88749 19.7454 5.5453 19.661 5.36718C19.6141 5.26405 19.5157 5.12343 19.4407 5.05312C19.1829 4.81405 19.0282 4.78124 18.1563 4.78124H17.3594V3.9703C17.3594 3.07968 17.3172 2.91562 17.0501 2.66249C16.7922 2.42343 16.6376 2.39062 15.7657 2.39062H14.9688V1.69687C14.9688 0.867178 14.9126 0.642178 14.6172 0.351553C14.2422 -0.023447 14.7579 -9.53674e-06 7.59068 -9.53674e-06C2.38287 0.00467682 1.17818 0.0140533 1.03287 0.0656147ZM14.0829 0.885927L14.2188 1.02187V9.60937V18.1969L14.0829 18.3328L13.9469 18.4687H7.60943H1.27193L1.136 18.3328L1.00006 18.1969V9.60937V1.02187L1.136 0.885927L1.27193 0.74999H7.60943H13.9469L14.0829 0.885927ZM16.5344 3.21561C16.6001 3.28124 16.6094 4.14374 16.6094 12C16.6094 19.8562 16.6001 20.7187 16.5344 20.7844C16.4688 20.85 15.8126 20.8594 10.0001 20.8594C4.18756 20.8594 3.53131 20.85 3.46568 20.7844C3.40475 20.7234 3.39068 20.5828 3.39068 19.9641V19.2187H8.67818C14.6266 19.2187 14.2469 19.2422 14.6172 18.8672C14.9969 18.4922 14.9688 19.1437 14.9688 10.6781V3.14062H15.7141C16.3329 3.14062 16.4735 3.15468 16.5344 3.21561ZM18.9251 5.60624C18.9907 5.67187 19.0001 6.52968 19.0001 14.3766C19.0001 22.4062 18.9954 23.0859 18.9204 23.1656C18.8501 23.2453 18.5829 23.25 12.386 23.25C6.57818 23.25 5.92193 23.2406 5.85631 23.175C5.79537 23.1141 5.78131 22.9734 5.78131 22.3547V21.6094H11.186C16.3422 21.6094 16.5954 21.6047 16.7735 21.5203C17.0032 21.4125 17.1907 21.2203 17.2844 20.9906C17.3501 20.8359 17.3594 19.9781 17.3594 13.1719V5.53124H18.1047C18.7235 5.53124 18.8641 5.5453 18.9251 5.60624Z" fill="black"/>
<path d="M2.14844 3.63281L2.03125 3.74531V5.07656C2.03125 6.40312 2.03125 6.40781 2.13906 6.50625C2.24688 6.60938 2.275 6.60938 3.59219 6.60938C4.91406 6.60938 4.9375 6.60938 5.03125 6.50625C5.12031 6.40781 5.125 6.34687 5.125 5.05781V3.70781L5.00313 3.61406C4.88125 3.52031 4.82031 3.51562 3.56875 3.51562H2.26094L2.14844 3.63281ZM4.375 5.0625V5.85938H3.57813H2.78125V5.0625V4.26562H3.57813H4.375V5.0625Z" fill="black"/>
<path d="M6.15633 4.18124C6.03446 4.31249 6.03446 4.56561 6.15164 4.6828C6.20321 4.73436 6.31571 4.79061 6.40008 4.80467C6.48446 4.81874 7.51102 4.82811 8.67352 4.81874L10.7923 4.80467L10.9001 4.70155C11.0313 4.5703 11.036 4.3078 10.9141 4.17186C10.8298 4.07811 10.7876 4.07811 8.54227 4.07811H6.25477L6.15633 4.18124Z" fill="black"/>
<path d="M6.18438 5.44219C6.02031 5.57344 6.01563 5.81719 6.17969 5.97656L6.29219 6.09375H9.57813C12.3719 6.09375 12.8828 6.08437 12.9953 6.02344C13.2203 5.91094 13.2578 5.64375 13.0703 5.46094L12.9578 5.34375H9.63438C6.34375 5.34375 6.30625 5.34375 6.18438 5.44219Z" fill="black"/>
<path d="M2.12969 8.18437C2.03594 8.30625 2.03125 8.36719 2.03125 9.61875V10.9266L2.14844 11.0391L2.26094 11.1562H3.59219C4.91875 11.1562 4.92344 11.1562 5.02188 11.0484C5.125 10.9406 5.125 10.9125 5.125 9.60469C5.125 8.26875 5.125 8.26406 5.01719 8.16562C4.90938 8.0625 4.88125 8.0625 3.56875 8.0625H2.22344L2.12969 8.18437ZM4.375 9.60937V10.4062H3.57813H2.78125V9.60937V8.8125H3.57813H4.375V9.60937Z" fill="black"/>
<path d="M6.27346 8.62969C6.03439 8.76094 5.98752 9.05156 6.17033 9.225C6.27814 9.32812 6.28283 9.32812 8.53283 9.32812C10.6094 9.32812 10.7922 9.32344 10.886 9.24375C11.0453 9.1125 11.0594 8.90156 10.9235 8.7375L10.8063 8.60156L8.58439 8.59219C7.02814 8.58281 6.33908 8.59687 6.27346 8.62969Z" fill="black"/>
<path d="M6.16574 9.99844C6.06261 10.1062 6.03449 10.2797 6.09074 10.4297C6.17511 10.6406 6.19386 10.6406 9.64855 10.6406H12.9157L13.0517 10.5047C13.2111 10.3406 13.2251 10.1859 13.0892 10.0125L12.9954 9.89062H9.6298H6.26418L6.16574 9.99844Z" fill="black"/>
<path d="M2.13438 12.7172C2.03125 12.825 2.03125 12.8578 2.03125 14.1516V15.4734L2.14844 15.5859L2.26094 15.7031H3.56875C4.82031 15.7031 4.88125 15.6984 5.00313 15.6047L5.125 15.5109V14.1609C5.125 12.8719 5.12031 12.8109 5.03125 12.7125C4.9375 12.6094 4.91406 12.6094 3.58281 12.6094H2.23281L2.13438 12.7172ZM4.375 14.1562V14.9531H3.57813H2.78125V14.1562V13.3594H3.57813H4.375V14.1562Z" fill="black"/>
<path d="M6.17969 13.2422C6.01563 13.4016 6.02031 13.6453 6.18438 13.7766C6.30625 13.875 6.35313 13.875 8.52813 13.875C9.74688 13.875 10.7781 13.8609 10.8203 13.8469C10.9047 13.8141 11.0313 13.5891 11.0313 13.4766C11.0313 13.4344 10.9703 13.3359 10.8953 13.2609L10.7594 13.125H8.52344H6.29219L6.17969 13.2422Z" fill="black"/>
<path d="M6.26879 14.4562C6.0391 14.5594 5.98285 14.85 6.15629 15.0375L6.25473 15.1406H9.62504H12.9954L13.0891 15.0187C13.2204 14.8547 13.211 14.7047 13.075 14.5453L12.9625 14.4141L9.68598 14.4047C7.00942 14.3953 6.38598 14.4047 6.26879 14.4562Z" fill="black"/>
</svg>
