<svg width="24" height="24" viewBox="0 0 24 24" fill="none" xmlns="http://www.w3.org/2000/svg">
<path d="M11.3906 0.0750122C10.725 0.215637 10.0453 0.689075 9.65622 1.2797C8.97653 2.31564 9.09372 3.79689 9.92341 4.65001C10.0172 4.74845 10.0875 4.83751 10.0734 4.84689C10.064 4.85626 9.88591 4.92189 9.67966 4.9922C9.14059 5.17032 8.70466 5.4422 8.26872 5.87814C7.84216 6.3047 7.57028 6.74064 7.37341 7.29376C7.24684 7.6547 7.24684 7.69689 7.22809 8.87814C7.20934 10.1766 7.21872 10.2563 7.43903 10.3547C7.59841 10.4297 16.4015 10.4297 16.5609 10.3547C16.7812 10.2563 16.7906 10.1766 16.7718 8.87814C16.7531 7.69689 16.7531 7.6547 16.6265 7.29376C16.4297 6.74064 16.1578 6.3047 15.7312 5.87814C15.2953 5.4422 14.8593 5.17032 14.3203 4.9922C14.114 4.92189 13.9359 4.85626 13.9265 4.84689C13.9125 4.83751 13.9828 4.74845 14.0765 4.65001C14.7234 3.98439 14.9625 2.87814 14.6578 1.94532C14.2078 0.571887 12.8062 -0.229675 11.3906 0.0750122ZM12.4312 0.867199C13.6593 1.12501 14.3437 2.52657 13.7953 3.65626C13.289 4.70157 12.0187 5.09064 10.9922 4.51876C10.7203 4.36407 10.3547 3.96564 10.2047 3.65626C9.66091 2.54064 10.3406 1.1297 11.5453 0.867199C11.925 0.787512 12.0515 0.782825 12.4312 0.867199ZM13.8984 5.69064C14.8828 5.95782 15.6843 6.78282 15.914 7.74376C15.9609 7.94064 15.9843 8.29689 15.9843 8.82189V9.60939H12H8.01559V8.82189C8.01559 8.29689 8.03903 7.94064 8.08591 7.74376C8.29216 6.87189 8.99528 6.08439 9.83903 5.77501C10.2937 5.61095 10.6734 5.58282 12.2109 5.59689C13.3359 5.61095 13.6734 5.6297 13.8984 5.69064Z" fill="black"/>
<path d="M16.0031 3.22029C15.9281 3.39841 15.8672 3.55779 15.8672 3.57654C15.8672 3.59998 16.0172 3.68904 16.2047 3.77341L16.5422 3.9281L16.7063 3.60935C16.8 3.43591 16.875 3.27185 16.875 3.24841C16.875 3.20154 16.2938 2.90623 16.2 2.90623C16.1672 2.90623 16.0781 3.04685 16.0031 3.22029Z" fill="black"/>
<path d="M6.73121 3.43595C6.55309 3.54376 6.40778 3.65157 6.41246 3.67032C6.41246 3.68907 6.50153 3.84376 6.60934 4.01251L6.80153 4.3172L7.06871 4.17189C7.49059 3.93751 7.48121 3.95626 7.27965 3.57189C7.18121 3.38907 7.09215 3.23907 7.07809 3.23907C7.06403 3.23907 6.90934 3.32814 6.73121 3.43595Z" fill="black"/>
<path d="M17.4094 3.98436C17.1657 4.36405 17.1516 4.3078 17.5969 4.60311L17.8266 4.75311L17.9391 4.61249C18.1172 4.38749 18.2953 4.12499 18.2766 4.10624C18.2672 4.10155 18.1172 3.99374 17.9438 3.87186L17.6297 3.65155L17.4094 3.98436Z" fill="black"/>
<path d="M5.38125 4.39217L5.0625 4.64998L5.24531 4.8703C5.59219 5.2828 5.55937 5.27342 5.89219 5.00623L6.18281 4.76717L5.96719 4.48123C5.85 4.32186 5.7375 4.18123 5.72344 4.16248C5.70937 4.14373 5.55469 4.24686 5.38125 4.39217Z" fill="black"/>
<path d="M18.661 4.97344L18.4078 5.25937L18.661 5.5125C18.7969 5.65312 18.9328 5.76562 18.961 5.76562C18.9891 5.76562 19.1297 5.64375 19.2797 5.49375L19.5469 5.22187L19.2469 4.95469C19.0781 4.80937 18.9375 4.6875 18.9281 4.6875C18.9188 4.6875 18.8016 4.81875 18.661 4.97344Z" fill="black"/>
<path d="M4.19534 5.53591C4.06878 5.68591 3.95628 5.83123 3.9469 5.84998C3.94222 5.87341 4.06878 5.99529 4.23284 6.12654L4.53284 6.3656L4.78128 6.08435L5.02972 5.8031L4.75315 5.52654C4.60315 5.37654 4.46722 5.24998 4.45315 5.25466C4.43909 5.25466 4.32659 5.38123 4.19534 5.53591Z" fill="black"/>
<path d="M19.8046 6.09844C19.65 6.225 19.5187 6.34687 19.5093 6.36562C19.5046 6.38437 19.5937 6.53437 19.7109 6.69375L19.9218 6.98438L20.25 6.76875C20.4328 6.64687 20.5781 6.53906 20.5781 6.52969C20.5781 6.51094 20.2031 6.00469 20.114 5.89687C20.1 5.87812 19.9593 5.96719 19.8046 6.09844Z" fill="black"/>
<path d="M3.19219 6.88125C3.08906 7.05937 3 7.21406 3 7.22812C3 7.26562 3.58594 7.59375 3.64687 7.59375C3.67031 7.59375 3.77812 7.45781 3.88125 7.28906L4.07344 6.98906L3.76875 6.77344C3.6 6.65625 3.44531 6.5625 3.42656 6.5625C3.40312 6.5625 3.3 6.70781 3.19219 6.88125Z" fill="black"/>
<path d="M20.6718 7.43906C20.5031 7.53281 20.3625 7.6125 20.3531 7.62187C20.3297 7.63594 20.6672 8.29688 20.7 8.29688C20.714 8.29688 20.8781 8.22656 21.0703 8.1375L21.4125 7.97812L21.2297 7.62187C21.1265 7.425 21.0281 7.26562 21.0093 7.26562C20.9906 7.26562 20.8406 7.34531 20.6718 7.43906Z" fill="black"/>
<path d="M2.44219 8.32031C2.3625 8.5125 2.29688 8.68593 2.29688 8.70937C2.29688 8.75625 2.99062 9.02812 3.01875 8.99531C3.09375 8.89218 3.28594 8.32968 3.25312 8.30156C3.22969 8.27812 3.07031 8.19375 2.89687 8.11875L2.58281 7.97812L2.44219 8.32031Z" fill="black"/>
<path d="M21.3281 8.88752C21.1593 8.95314 21.014 9.01408 21.0093 9.02345C20.9859 9.0422 21.1875 9.66564 21.2296 9.71252C21.2531 9.74064 21.914 9.58127 21.9796 9.53439C22.0171 9.50627 21.7359 8.76564 21.689 8.77033C21.6562 8.77033 21.4968 8.82658 21.3281 8.88752Z" fill="black"/>
<path d="M1.89835 9.9375C1.85148 10.1438 1.82335 10.3219 1.83273 10.3313C1.86554 10.3594 2.54992 10.4953 2.58273 10.4766C2.59679 10.4672 2.63429 10.3359 2.6671 10.1859C2.69992 10.0359 2.73742 9.87656 2.74679 9.83438C2.76554 9.77344 2.7046 9.73594 2.44679 9.66094C2.26867 9.60469 2.09054 9.5625 2.05304 9.5625C2.00617 9.5625 1.95929 9.675 1.89835 9.9375Z" fill="black"/>
<path d="M21.7359 10.4297C21.5859 10.4625 21.4547 10.5 21.4406 10.5094C21.4313 10.5234 21.4453 10.6969 21.4734 10.8938L21.5297 11.2547L21.7922 11.2266C22.3359 11.1656 22.3266 11.1703 22.2938 10.95C22.275 10.8469 22.2469 10.6688 22.2328 10.5563C22.2 10.3313 22.1906 10.3313 21.7359 10.4297Z" fill="black"/>
<path d="M1.6687 11.3062C1.65464 11.3906 1.63589 11.5828 1.62183 11.7281L1.59839 12H1.99683C2.27339 12 2.39995 11.9812 2.41401 11.9391C2.42339 11.9109 2.43745 11.7422 2.44683 11.5687L2.46558 11.2547L2.20308 11.2266C2.06245 11.2078 1.88901 11.1844 1.8187 11.175C1.7062 11.1516 1.69214 11.1656 1.6687 11.3062Z" fill="black"/>
<path d="M21.6094 12.3984V12.7969H22.0078H22.4063V12.3984V12H22.0078H21.6094V12.3984Z" fill="black"/>
<path d="M1.62657 12.8297C1.60314 12.8765 1.66407 13.5844 1.69689 13.6172C1.72501 13.6453 2.43751 13.5703 2.45626 13.5375C2.46095 13.5328 2.45157 13.364 2.43751 13.1719L2.41407 12.8203L2.0297 12.8062C1.81876 12.8015 1.64064 12.8109 1.62657 12.8297Z" fill="black"/>
<path d="M4.21873 13.6687C3.29998 13.8656 2.4656 14.5969 2.15623 15.4828C2.0156 15.8859 1.9781 16.5984 2.08123 17.0344C2.17498 17.4328 2.43748 17.9344 2.70466 18.2344L2.90623 18.4594L2.56873 18.5625C1.42498 18.9094 0.576538 19.7344 0.187476 20.8875L0.0281006 21.3516L0.00935059 22.5328L-0.00939941 23.7188L0.131226 23.8594L0.271851 24H4.79998H9.32341L9.45466 23.8875L9.58591 23.775V22.6078C9.58591 21.5437 9.57654 21.4125 9.4781 21.0797C9.13591 19.8844 8.25466 18.9609 7.10623 18.5859L6.70779 18.4547L6.89529 18.2391C7.44841 17.6109 7.69216 16.7437 7.55154 15.9094C7.35935 14.8266 6.44998 13.8937 5.36716 13.6641C4.96404 13.5797 4.61716 13.5797 4.21873 13.6687ZM5.4281 14.5078C6.30935 14.775 6.90935 15.7547 6.76404 16.6922C6.5531 18.0375 5.13748 18.7734 3.91404 18.1687C2.94841 17.6906 2.54529 16.5562 2.99998 15.5719C3.26248 14.9953 3.84373 14.5406 4.44373 14.4375C4.70154 14.3906 5.14216 14.4234 5.4281 14.5078ZM6.92341 19.3547C7.73435 19.65 8.41404 20.3625 8.67654 21.1875C8.75623 21.4312 8.77966 21.6562 8.79841 22.3453L8.82654 23.2031H4.80466H0.787476L0.806226 22.3266C0.829663 21.3891 0.862476 21.2391 1.13904 20.6953C1.48123 20.0203 2.17029 19.4766 2.92966 19.2844C3.1031 19.2375 3.62341 19.2281 4.89841 19.2328C6.57654 19.2469 6.64216 19.2516 6.92341 19.3547Z" fill="black"/>
<path d="M18.6094 13.6687C17.8031 13.8422 17.0391 14.4516 16.6922 15.1922C16.2047 16.2328 16.3641 17.4 17.1047 18.2391L17.2922 18.4547L16.8938 18.5859C15.7453 18.9609 14.8641 19.8844 14.5219 21.0797C14.4234 21.4125 14.4141 21.5437 14.4141 22.6078V23.775L14.5453 23.8875L14.6766 24H19.2H23.7281L23.8688 23.8594L24.0094 23.7188L23.9906 22.5328L23.9719 21.3516L23.8125 20.8875C23.5688 20.1703 23.1422 19.5703 22.575 19.1437C22.2141 18.8719 21.8625 18.6937 21.4313 18.5625L21.0938 18.4594L21.2953 18.2344C21.5625 17.9344 21.825 17.4328 21.9188 17.0344C22.0219 16.5984 21.9844 15.8859 21.8438 15.4828C21.3844 14.1703 19.9641 13.3734 18.6094 13.6687ZM19.5141 14.4375C20.1562 14.5406 20.7281 14.9766 21 15.5719C21.7734 17.25 20.025 18.975 18.3516 18.1922C17.5594 17.8219 17.0813 16.9125 17.2406 16.0687C17.3953 15.2391 18.0516 14.5734 18.8438 14.4422C19.2 14.3859 19.2094 14.3859 19.5141 14.4375ZM21.3 19.3453C22.1578 19.6687 22.7438 20.2734 23.0719 21.1734C23.1562 21.4031 23.175 21.5859 23.1938 22.3219L23.2125 23.2031H19.1953H15.1734L15.2016 22.3453C15.2203 21.6609 15.2438 21.4312 15.3234 21.1875C15.5531 20.4656 16.1016 19.8234 16.7578 19.5C17.3063 19.2328 17.3953 19.2234 19.2891 19.2328C20.9578 19.2422 21.0328 19.2469 21.3 19.3453Z" fill="black"/>
<path d="M10.1015 21.8625C10.0921 21.8906 10.0546 22.0641 10.0171 22.2516C9.9421 22.636 9.91398 22.6031 10.3827 22.6641C10.514 22.6828 10.6499 22.7063 10.6921 22.7156C10.753 22.7344 10.7765 22.6688 10.814 22.35C10.8421 22.1344 10.8562 21.9563 10.8515 21.9469C10.8468 21.9422 10.678 21.9047 10.4812 21.8719C10.214 21.825 10.1109 21.825 10.1015 21.8625Z" fill="black"/>
<path d="M13.5328 21.8625C13.3593 21.8953 13.2047 21.9328 13.1906 21.9516C13.1625 21.975 13.2422 22.6781 13.275 22.7109C13.2843 22.7203 13.3968 22.7062 13.5234 22.6828C13.6547 22.6594 13.8281 22.6312 13.9125 22.6172C14.0672 22.5891 14.0718 22.5844 14.039 22.4156C13.964 21.9984 13.9125 21.7969 13.8843 21.8016C13.8656 21.8062 13.7109 21.8344 13.5328 21.8625Z" fill="black"/>
<path d="M11.625 22.3078C11.625 22.4859 11.6109 22.6641 11.5968 22.7063C11.5734 22.7719 11.625 22.7812 11.9953 22.7812H12.4265L12.4125 22.3922L12.3984 22.0078L12.014 21.9938L11.625 21.9797V22.3078Z" fill="black"/>
</svg>
