<svg width="24" height="24" viewBox="0 0 24 24" fill="none" xmlns="http://www.w3.org/2000/svg">
<path d="M20.6015 0.0609083C20.4984 0.0984077 20.3297 0.16872 20.2265 0.224971C20.1094 0.285908 17.9437 2.42341 14.5734 5.79841L9.10779 11.2734L8.74217 13.1015C8.4281 14.6953 8.3906 14.9484 8.43279 15.0984C8.49373 15.3 8.74685 15.539 8.94373 15.5859C9.03748 15.6047 9.65623 15.5015 10.7672 15.2812C11.6906 15.0984 12.5203 14.9297 12.6094 14.9062C12.7406 14.8687 13.8562 13.7765 18.2625 9.3656C24.4359 3.18278 23.9765 3.69841 23.9765 2.9531C23.9719 2.31091 23.8828 2.16091 22.8609 1.13903C22.1719 0.44997 21.9562 0.26247 21.7359 0.164033C21.4125 0.0140333 20.8875 -0.0328417 20.6015 0.0609083ZM21.8625 2.15153C22.5 2.78903 22.6031 2.91091 22.5797 3.00466C22.5609 3.0656 22.3594 3.30466 22.125 3.53903L21.7031 3.96091L20.8687 3.12653L20.039 2.29685L20.489 1.85153C20.7422 1.6031 20.9765 1.40622 21.0281 1.40622C21.0797 1.40622 21.4219 1.70622 21.8625 2.15153ZM19.875 4.14841L20.6953 4.96872L16.3875 9.27653L12.0797 13.5843L11.0765 13.7812C10.5281 13.8937 10.064 13.9687 10.0453 13.9547C10.0312 13.9359 10.1062 13.4765 10.214 12.9281L10.4109 11.9297L14.7094 7.62653C17.0719 5.26403 19.0172 3.3281 19.0312 3.3281C19.0453 3.3281 19.425 3.69841 19.875 4.14841Z" fill="black"/>
<path d="M2.08594 3.89062C1.17656 4.07812 0.435938 4.72969 0.13125 5.61562L0.0234375 5.92969V13.9219V21.9141L0.13125 22.2234C0.398438 23.0016 0.998438 23.6016 1.77188 23.8687L2.08594 23.9766H10.0781H18.0703L18.3844 23.8687C19.1484 23.6016 19.725 23.0344 20.025 22.2375L20.1328 21.9609L20.1469 16.4672C20.1562 11.0156 20.1562 10.9687 20.0625 10.7812C19.9547 10.5703 19.6875 10.4062 19.4531 10.4062C19.2188 10.4062 18.9516 10.5703 18.8438 10.7812C18.75 10.9641 18.75 11.0437 18.75 16.2797C18.75 22.2516 18.7734 21.8719 18.3984 22.2422C18.0188 22.6219 18.6938 22.5938 10.0781 22.5938C1.4625 22.5938 2.1375 22.6219 1.75781 22.2422C1.37813 21.8625 1.40625 22.5375 1.40625 13.9219C1.40625 5.30625 1.37813 5.98125 1.75781 5.60156C2.12813 5.22656 1.74844 5.25 7.72031 5.25C12.9563 5.25 13.0359 5.25 13.2188 5.15625C13.4297 5.04844 13.5938 4.78125 13.5938 4.54688C13.5938 4.3125 13.4297 4.04531 13.2188 3.9375C13.0359 3.84375 12.9609 3.84375 7.65469 3.84844C4.69688 3.85312 2.18906 3.87187 2.08594 3.89062Z" fill="black"/>
</svg>
