<svg width="24" height="24" viewBox="0 0 24 24" fill="none" xmlns="http://www.w3.org/2000/svg">
<path d="M10.9218 0.0468616C8.6062 0.271862 6.4687 1.12499 4.5937 2.56874C3.67964 3.27186 2.4937 4.59374 1.80933 5.67186C1.51401 6.13593 0.937451 7.31717 0.731201 7.87967C0.501514 8.5078 0.253076 9.47342 0.131201 10.2187C-0.0141113 11.1328 -0.0141113 12.8672 0.131201 13.7812C0.342139 15.075 0.674951 16.1156 1.24214 17.2734C1.86089 18.5344 2.50308 19.4297 3.53433 20.4656C4.57026 21.4969 5.46558 22.1391 6.72651 22.7578C7.88433 23.325 8.92495 23.6578 10.2187 23.8687C11.1328 24.0141 12.8671 24.0141 13.7812 23.8687C15.075 23.6578 16.1156 23.325 17.2734 22.7578C18.5343 22.1391 19.4296 21.4969 20.4656 20.4656C21.4968 19.4297 22.139 18.5344 22.7578 17.2734C23.1703 16.4344 23.3765 15.8859 23.6015 15.0422C23.8968 13.9172 23.9671 13.3031 23.9671 12C23.9671 10.6969 23.8968 10.0828 23.6015 8.9578C23.3765 8.11405 23.1703 7.56561 22.7578 6.72655C22.139 5.46561 21.4968 4.5703 20.4656 3.53436C19.4296 2.50311 18.5343 1.86092 17.2734 1.24217C16.1203 0.674988 15.0515 0.337486 13.8046 0.140612C13.1156 0.0327988 11.5781 -0.0187626 10.9218 0.0468616ZM13.2187 1.03592C15.2437 1.24686 17.3296 2.11874 18.9609 3.4453C19.5187 3.89999 20.3765 4.78592 20.7984 5.34842C21.9609 6.89999 22.6921 8.68592 22.95 10.6172C23.039 11.2875 23.039 12.7125 22.95 13.3828C22.6734 15.4406 21.8484 17.3672 20.5546 18.9609C20.1 19.5187 19.214 20.3766 18.6515 20.7984C17.1 21.9609 15.314 22.6922 13.3828 22.95C12.7125 23.0391 11.2875 23.0391 10.6171 22.95C8.68589 22.6922 6.89995 21.9609 5.34839 20.7984C4.78589 20.3766 3.89995 19.5187 3.44526 18.9609C2.15151 17.3672 1.32651 15.4406 1.04995 13.3828C0.960889 12.7125 0.960889 11.2875 1.04995 10.6172C1.20933 9.41717 1.55151 8.26874 2.05776 7.23749C2.62964 6.06092 3.19683 5.24999 4.07808 4.3453C5.02495 3.36561 5.91089 2.71874 7.12964 2.10936C9.02808 1.16718 11.0531 0.810925 13.2187 1.03592Z" fill="black"/>
<path d="M11.4655 5.88281C10.9124 6.10781 10.5796 6.6 10.5796 7.19062C10.5796 7.64062 10.7155 7.94531 11.0437 8.24531C11.3343 8.5125 11.6202 8.625 11.9999 8.625C12.3796 8.625 12.6655 8.5125 12.9562 8.24531C13.2843 7.94531 13.4202 7.64062 13.4202 7.19062C13.4202 6.91875 13.3968 6.80156 13.2937 6.59531C12.9562 5.90156 12.164 5.59219 11.4655 5.88281Z" fill="black"/>
<path d="M10.3031 9.68906C10.1671 9.77344 10.0781 9.93281 10.0781 10.0828C10.0781 10.2469 10.2046 10.4203 10.6359 10.8516L11.0624 11.2734V13.9172V16.5609L10.6218 17.0109C10.3827 17.2594 10.1577 17.5078 10.1296 17.5641C10.0359 17.7469 10.0687 17.9062 10.2374 18.075L10.3968 18.2344H11.9906H13.5843L13.7296 18.1125C13.9077 17.9672 13.9593 17.7375 13.8609 17.55C13.8187 17.475 13.5984 17.2266 13.364 16.9922L12.9374 16.5703V13.2281V9.88125L12.8015 9.74531L12.6656 9.60938H11.5452C10.589 9.60938 10.4109 9.62344 10.3031 9.68906Z" fill="black"/>
</svg>
