<svg width="24" height="24" viewBox="0 0 24 24" fill="none" xmlns="http://www.w3.org/2000/svg">
<path d="M0.88125 0.0937982C0.679688 0.201611 0.515625 0.478173 0.515625 0.703173C0.515625 1.11099 0.867188 1.4063 1.35469 1.4063H1.64062V3.74536V6.07974L1.74844 6.23911C2.04375 6.67974 2.65313 6.65161 2.92969 6.18286C3.01875 6.02817 3.02344 5.93911 3.02344 3.2813C3.02344 0.623486 3.01875 0.534423 2.92969 0.379735C2.7375 0.0516105 2.65781 0.0234857 1.81406 0.0141106C1.12969 4.81606e-05 1.03594 0.00942326 0.88125 0.0937982Z" fill="black"/>
<path d="M6.92813 2.91094C6.72656 3.01406 6.5625 3.29062 6.5625 3.51562C6.5625 3.74062 6.71719 3.99844 6.92813 4.11562L7.11563 4.21875H15.2766C23.3672 4.21875 23.4422 4.21875 23.625 4.125C23.8359 4.01719 24 3.75 24 3.51562C24 3.28125 23.8359 3.01406 23.625 2.90625C23.4422 2.8125 23.3672 2.8125 15.2719 2.8125C7.22813 2.81719 7.09688 2.81719 6.92813 2.91094Z" fill="black"/>
<path d="M1.45318 8.79378C0.904746 8.94378 0.459433 9.30941 0.201621 9.82503C-0.00462923 10.2516 -0.0421292 10.5469 0.0844333 10.7813C0.267246 11.1188 0.637558 11.2407 1.00318 11.0907C1.18131 11.0157 1.30787 10.8516 1.42506 10.5375C1.46725 10.4203 1.55631 10.2844 1.62193 10.2469C2.02037 9.98441 2.54537 10.2328 2.54537 10.6828C2.54537 11.0016 2.11881 11.6813 0.951621 13.2282C0.262558 14.1469 0.187558 14.2735 0.187558 14.5313C0.187558 14.7938 0.323496 15.0188 0.562558 15.1594C0.717246 15.2532 0.810996 15.2578 2.15631 15.2719C3.57662 15.286 3.586 15.286 3.79225 15.1782C4.26568 14.925 4.30318 14.2735 3.85787 13.9828C3.75475 13.9125 3.60006 13.8938 2.99068 13.875L2.25006 13.8516L2.63912 13.3125C3.54381 12.061 3.80631 11.6016 3.91881 11.0485C4.20943 9.66097 2.85475 8.41878 1.45318 8.79378Z" fill="black"/>
<path d="M6.92813 11.3953C6.72656 11.4984 6.5625 11.775 6.5625 12C6.5625 12.225 6.71719 12.4828 6.92813 12.6L7.11563 12.7031H15.2766C23.3672 12.7031 23.4422 12.7031 23.625 12.6094C23.8359 12.5016 24 12.2344 24 12C24 11.7656 23.8359 11.4984 23.625 11.3906C23.4422 11.2969 23.3672 11.2969 15.2719 11.2969C7.22813 11.3016 7.09688 11.3016 6.92813 11.3953Z" fill="black"/>
<path d="M1.62199 17.4844C1.31262 17.5641 0.904806 17.8125 0.656369 18.075C0.215744 18.5438 0.0235563 19.2047 0.229806 19.5375C0.487619 19.9407 1.01262 19.9875 1.34543 19.6313C1.40168 19.575 1.48606 19.4203 1.53293 19.2891C1.68762 18.8813 2.06731 18.7313 2.39543 18.9516C2.65793 19.125 2.74231 19.425 2.61106 19.6875C2.53137 19.8469 2.26418 20.0157 2.09074 20.0157C1.72043 20.0157 1.40637 20.3391 1.40637 20.7188C1.40637 21.0985 1.72043 21.4219 2.09074 21.4219C2.26418 21.4219 2.53137 21.5907 2.61106 21.75C2.68606 21.9 2.68606 22.1157 2.61106 22.2657C2.53137 22.425 2.26418 22.5938 2.09074 22.5938C1.78137 22.5938 1.50012 22.2891 1.50012 21.9516C1.50012 21.4735 0.834494 21.1547 0.417306 21.436C0.107931 21.6422 0.0329313 21.961 0.164181 22.4766C0.412619 23.4282 1.29387 24.0657 2.24543 23.986C3.52043 23.8782 4.36418 22.6313 3.98449 21.4125C3.93293 21.2438 3.82981 21.0235 3.75012 20.9157L3.60949 20.7188L3.75012 20.5219C3.82981 20.4141 3.93293 20.1938 3.98449 20.025C4.29856 19.0078 3.77824 17.9578 2.76574 17.5594C2.51731 17.461 1.88449 17.4188 1.62199 17.4844Z" fill="black"/>
<path d="M6.92813 19.8797C6.72656 19.9828 6.5625 20.2594 6.5625 20.4844C6.5625 20.7094 6.71719 20.9672 6.92813 21.0844L7.11563 21.1875H15.2766C23.3672 21.1875 23.4422 21.1875 23.625 21.0938C23.8359 20.9859 24 20.7187 24 20.4844C24 20.25 23.8359 19.9828 23.625 19.875C23.4422 19.7812 23.3672 19.7812 15.2719 19.7812C7.22813 19.7859 7.09688 19.7859 6.92813 19.8797Z" fill="black"/>
</svg>
