<svg width="24" height="18" viewBox="0 0 24 18" fill="none" xmlns="http://www.w3.org/2000/svg">
<path d="M11.3672 0.520264C9.97034 0.726514 8.85471 1.68276 8.42815 3.04683C8.27346 3.55308 8.27346 4.50464 8.42815 5.01558C8.90627 6.54839 10.261 7.54683 11.8688 7.55151C12.4875 7.55151 12.8672 7.46714 13.4297 7.19526C14.1797 6.83433 14.686 6.32808 15.0703 5.5687C15.3563 5.00151 15.436 4.58901 15.4125 3.87651C15.3938 3.41714 15.3656 3.22964 15.2625 2.92964C15.0797 2.39526 14.8031 1.94995 14.3953 1.54214C13.8188 0.965577 13.1391 0.632764 12.3141 0.520264C11.9016 0.464014 11.7703 0.464014 11.3672 0.520264ZM12.75 1.4062C13.5938 1.69214 14.2641 2.36245 14.536 3.19683C14.6813 3.64214 14.6953 4.38745 14.5594 4.7812C14.2172 5.7937 13.5235 6.44995 12.525 6.70776C11.6203 6.93745 10.6641 6.68901 9.95627 6.02808C9.58596 5.68589 9.37502 5.35776 9.20159 4.86558C9.04221 4.41089 9.03284 3.69839 9.18284 3.23433C9.47815 2.3062 10.3547 1.50464 11.2735 1.31714C11.6531 1.24214 12.3985 1.28433 12.75 1.4062Z" fill="black"/>
<path d="M18.6563 2.97656C17.7094 3.19219 16.8844 3.94688 16.5891 4.875C16.4719 5.23125 16.4485 5.99063 16.5422 6.32813C16.6688 6.7875 16.9219 7.21875 17.2641 7.57031C17.6485 7.95469 17.9063 8.11875 18.3797 8.27813C19.0875 8.51719 19.8 8.46094 20.5125 8.11406C22.3782 7.19063 22.5516 4.58438 20.8266 3.40313C20.2078 2.98125 19.3641 2.81719 18.6563 2.97656ZM19.8328 3.77813C20.1891 3.88594 20.4328 4.04063 20.7141 4.33594C21.6469 5.32031 21.3282 6.88125 20.0766 7.4625C19.261 7.84688 18.2063 7.58438 17.6625 6.86719C17.3672 6.48281 17.2782 6.19219 17.2735 5.64844C17.2735 5.21719 17.2875 5.15625 17.4235 4.86094C17.6672 4.34531 18.1313 3.94219 18.6797 3.76875C18.9469 3.68438 19.5328 3.68906 19.8328 3.77813Z" fill="black"/>
<path d="M4.17653 3.16875C3.4734 3.31875 2.8359 3.75 2.44215 4.33594C1.70153 5.44219 1.85153 6.87656 2.7984 7.80937C3.2859 8.29219 4.08278 8.625 4.75778 8.625C5.92497 8.625 7.04997 7.79062 7.4109 6.65625C7.5609 6.19687 7.55153 5.48437 7.39215 5.025C7.2234 4.54219 7.01247 4.20937 6.64684 3.86719C5.98122 3.23438 5.06247 2.97656 4.17653 3.16875ZM5.57809 4.06406C6.14059 4.33125 6.48747 4.72969 6.66559 5.31562C6.94684 6.23438 6.48747 7.23281 5.59215 7.65469C4.98747 7.93594 4.17653 7.875 3.63747 7.5C3.35153 7.30781 3.05153 6.96562 2.92965 6.68906C2.44215 5.62031 2.97653 4.38281 4.10622 3.98438C4.32653 3.90937 4.47184 3.89062 4.82809 3.90469C5.21247 3.91406 5.31559 3.9375 5.57809 4.06406Z" fill="black"/>
<path d="M11.4375 8.04841C10.0031 8.18904 8.62969 8.78435 7.62656 9.7031L7.30781 9.99841L6.85313 9.78279C6.3 9.52029 5.92031 9.4031 5.36719 9.3281C3.16875 9.01873 0.970313 10.3781 0.248438 12.4922C0.05625 13.0547 0 13.5281 0 14.5312C0 15.4547 0 15.4594 0.13125 15.7078C0.225 15.8906 0.323438 15.9984 0.492188 16.1015L0.717188 16.2422L3.09375 16.2562L5.475 16.2703L5.50313 16.4578C5.54531 16.7297 5.68125 16.9734 5.90625 17.175C6.30469 17.5359 5.80313 17.5078 12 17.5078C18.1969 17.5078 17.6953 17.5359 18.0938 17.175C18.3609 16.9359 18.4781 16.6828 18.5063 16.3031L18.5297 15.989L20.8781 15.975C22.5469 15.9656 23.2641 15.9422 23.3484 15.9047C23.5547 15.8156 23.8219 15.5531 23.9109 15.3515C23.9859 15.1922 24 15.0328 24 14.2453C24 13.2469 23.9438 12.7734 23.7516 12.2109C23.2641 10.7812 22.1297 9.67498 20.6953 9.22029C19.3969 8.81248 17.8828 8.99529 16.7625 9.68904L16.5328 9.83435L16.2422 9.58591C14.9156 8.46091 13.1109 7.87966 11.4375 8.04841ZM12.9656 8.88279C15.3094 9.28591 17.1469 11.0531 17.6297 13.3687C17.7094 13.7625 17.7328 14.0625 17.7469 15.014C17.7703 16.275 17.7469 16.4812 17.5453 16.6359C17.4234 16.7344 17.4 16.7344 12 16.7344C6.63281 16.7344 6.57188 16.7344 6.45469 16.6406C6.25313 16.4812 6.23438 16.3312 6.25313 15.0469C6.26719 14.0437 6.28594 13.7719 6.37031 13.3687C6.85313 11.0719 8.67656 9.29998 10.9922 8.88748C11.4984 8.79841 12.4547 8.79373 12.9656 8.88279ZM20.2453 9.89529C21.6422 10.2515 22.7484 11.3625 23.1094 12.7687C23.1891 13.0828 23.2031 13.289 23.2031 14.1094C23.2031 14.7984 23.1891 15.089 23.1469 15.1312C23.1047 15.1734 22.5234 15.1875 20.8078 15.1875H18.5297L18.5016 14.3765C18.4594 13.2047 18.2812 12.4875 17.7844 11.5265C17.6625 11.2875 17.4516 10.9406 17.3156 10.7531L17.0672 10.4109L17.2219 10.3125C18.0469 9.80623 19.2422 9.64216 20.2453 9.89529ZM5.72813 10.1906C6.12656 10.289 6.75 10.5562 6.75 10.6219C6.75 10.6359 6.66094 10.7719 6.55781 10.9312C6.28125 11.3344 5.88281 12.1875 5.74219 12.6797C5.55938 13.3078 5.48438 13.9078 5.48438 14.7281V15.4687H3.19219C1.2375 15.4687 0.895313 15.4594 0.84375 15.3984C0.801563 15.3469 0.792188 15.0562 0.80625 14.264C0.825 13.3078 0.839063 13.1578 0.932813 12.8672C1.39219 11.4703 2.49844 10.4578 3.91406 10.1484C4.39688 10.0406 5.21719 10.0594 5.72813 10.1906Z" fill="black"/>
</svg>
