<svg width="22" height="24" viewBox="0 0 22 24" fill="none" xmlns="http://www.w3.org/2000/svg">
<path d="M10.3438 0.0281248C8.83438 0.215625 7.57344 0.829687 6.52344 1.89375C5.59063 2.83594 5.05625 3.83906 4.77969 5.15625C4.66719 5.70937 4.66719 6.94687 4.77969 7.5C5.05625 8.81719 5.59531 9.825 6.52344 10.7625C7.46563 11.7141 8.49688 12.2719 9.82812 12.5484C10.3766 12.6609 11.6094 12.6609 12.1813 12.5484C13.4469 12.2953 14.4969 11.7328 15.4344 10.8047C16.3813 9.87187 16.9438 8.83125 17.2203 7.5C17.3328 6.94687 17.3328 5.70937 17.2203 5.15625C17.0375 4.28906 16.7047 3.4875 16.2266 2.76562C15.9313 2.32031 15.0172 1.40156 14.5813 1.11562C13.8266 0.614062 13.0109 0.271874 12.2094 0.117187C11.8297 0.0421867 10.6719 -0.0140629 10.3438 0.0281248ZM12.125 1.5375C13.0531 1.78125 13.8359 2.22187 14.4734 2.85469C15.1063 3.4875 15.5328 4.24687 15.7953 5.20312C15.9313 5.71406 15.9313 6.94219 15.7953 7.45312C15.5328 8.40937 15.1063 9.16875 14.4734 9.80156C13.8406 10.4344 13.0813 10.8609 12.125 11.1234C11.6141 11.2594 10.3859 11.2594 9.875 11.1234C8.91875 10.8609 8.15938 10.4344 7.52656 9.80156C5.71719 7.9875 5.6 5.11406 7.25938 3.14062C7.97656 2.2875 9.15313 1.62656 10.25 1.45781C10.7094 1.3875 11.7078 1.42969 12.125 1.5375Z" fill="black"/>
<path d="M8.48283 14.1375C5.85783 14.4562 3.49064 15.9422 1.9672 18.2344C1.07189 19.575 0.560954 21.1594 0.471891 22.8516C0.443766 23.3719 0.448454 23.4328 0.542204 23.6156C0.607829 23.7469 0.701579 23.8406 0.828141 23.9062C1.01095 24 1.08127 24 11 24C20.9188 24 20.9891 24 21.1719 23.9062C21.2985 23.8406 21.3922 23.7469 21.4578 23.6156C21.5516 23.4328 21.5563 23.3719 21.5281 22.8516C21.4063 20.5406 20.525 18.5156 18.9219 16.8562C17.4031 15.2859 15.4438 14.3297 13.3016 14.1094C12.5938 14.0391 9.13439 14.0578 8.48283 14.1375ZM13.2266 15.5156C16.3344 15.8719 18.9406 18.0609 19.8078 21.0516C19.9485 21.525 20.0938 22.2609 20.0938 22.4812V22.5938H11H1.90627V22.4578C1.90627 22.2047 2.09845 21.3234 2.25314 20.8406C2.76408 19.2844 3.73908 17.9437 5.0797 16.9453C5.55783 16.5891 6.6172 16.0453 7.22658 15.8484C7.69064 15.6937 8.23908 15.5766 8.73595 15.5203C9.21408 15.4641 12.7391 15.4641 13.2266 15.5156Z" fill="black"/>
</svg>
