<svg width="22" height="20" viewBox="0 0 22 20" fill="none" xmlns="http://www.w3.org/2000/svg">
<path d="M4.35783 0.198463C4.10002 0.264088 3.27971 0.756275 2.87658 1.08909C1.79377 1.9844 1.01096 3.28753 0.710956 4.70784C0.532831 5.52815 0.546893 6.8219 0.734393 7.74534C0.926581 8.69221 1.19846 9.47503 1.64846 10.375C2.00002 11.0782 4.39064 15.1891 4.75627 15.7141C6.33596 17.9875 8.49221 19.3703 10.6766 19.5063C12.0594 19.5953 13.2735 19.3188 14.375 18.6625C14.7828 18.4188 14.8906 18.3297 15.0078 18.1375C15.1438 17.9125 15.1485 17.8844 15.1438 17.3875C15.1438 16.9375 15.125 16.8203 15.0125 16.5157C14.8203 16.0094 14.5766 15.5453 14.1406 14.8516C13.4891 13.8203 13.1235 13.3938 12.5938 13.0516C12.186 12.7844 11.8766 12.7047 11.4031 12.7282C10.9672 12.7516 10.7422 12.8407 9.96877 13.2953C9.50002 13.5719 9.46252 13.586 9.17189 13.586C8.79221 13.586 8.43596 13.4219 8.12658 13.0985C7.99064 12.9578 7.54064 12.2313 6.79533 10.9375C6.17658 9.86878 5.62814 8.91721 5.58127 8.82815C5.45939 8.58909 5.43127 7.90471 5.53908 7.63284C5.64221 7.36096 5.77814 7.23909 6.34064 6.90628L6.80002 6.6344L6.87971 6.76096C7.00158 6.96253 11.9094 10.7969 12.2844 10.9844C12.5844 11.1344 12.6453 11.1485 13.011 11.1438C13.3391 11.1438 13.461 11.1203 13.6719 11.0219C13.836 10.9469 15.1906 9.91565 17.3281 8.23753C19.1985 6.76565 20.7547 5.55159 20.7875 5.52815C20.8297 5.50003 20.8438 6.38596 20.8438 9.88284V14.2703L20.7266 14.3828L20.6141 14.5H18.186C16.625 14.5 15.6922 14.5188 15.5797 14.5516C15.2281 14.65 15.1063 15.0766 15.3547 15.3532L15.4906 15.5078H18.1344C20.7406 15.5078 20.7781 15.5078 20.9938 15.4047C21.3031 15.2641 21.6125 14.9594 21.7297 14.6875L21.8281 14.4532L21.8188 9.49846L21.8047 4.53909L21.6781 4.31878C21.5188 4.05628 21.2469 3.83127 20.9375 3.71409C20.7125 3.62971 20.4641 3.62503 14.1266 3.62503H7.55002L7.13752 2.81409C6.63127 1.82503 6.30314 1.32346 5.84846 0.845337C5.34689 0.320337 4.80783 0.0859623 4.35783 0.198463ZM4.88752 1.31878C5.25783 1.58596 5.66096 2.15784 6.18596 3.15627C6.59846 3.94378 6.78596 4.49221 6.79533 4.91409C6.80471 5.46253 6.75783 5.5094 5.66096 6.13753C4.95783 6.54065 4.66721 6.90628 4.50314 7.59534C4.40939 7.99378 4.43752 8.65003 4.56877 9.01565C4.65314 9.25003 6.85158 13.0938 7.16096 13.5485C7.45627 13.975 8.05158 14.3828 8.58596 14.5235C8.94689 14.6172 9.48596 14.6125 9.76721 14.5188C9.88908 14.4766 10.2688 14.2844 10.6016 14.0875C11.3188 13.675 11.5485 13.6235 11.8906 13.7969C12.3313 14.0219 12.8094 14.5844 13.4281 15.611C13.8547 16.3188 14.0844 16.8344 14.1594 17.261C14.2156 17.6078 14.2203 17.6078 13.6531 17.9172C12.3125 18.6578 10.4938 18.7282 9.02658 18.0907C7.70471 17.5235 6.45783 16.436 5.52033 15.0438C5.21564 14.5891 2.81564 10.4547 2.55314 9.92971C1.43752 7.70315 1.27814 5.38753 2.11721 3.64846C2.38908 3.08596 2.65158 2.72971 3.19064 2.19534C3.57502 1.81096 3.81877 1.61409 4.13283 1.43596C4.36721 1.30003 4.58752 1.18752 4.62971 1.18752C4.67189 1.18752 4.78908 1.24846 4.88752 1.31878ZM20.2531 4.65159C20.1922 4.70784 13.85 9.68596 13.5406 9.92034C13.2453 10.1453 12.936 10.2016 12.6969 10.075C12.6172 10.0328 11.45 9.13753 10.1094 8.08284C8.76877 7.02815 7.62971 6.13753 7.57814 6.10471C7.48908 6.03909 7.48908 6.0344 7.62971 5.74846C7.75158 5.5094 7.77971 5.38284 7.80314 5.03128L7.82658 4.6094H14.061C17.6985 4.6094 20.2813 4.62815 20.2531 4.65159Z" fill="black"/>
</svg>
